<svg xmlns="http://www.w3.org/2000/svg" viewBox="305 204 3391 3593" width="3391" height="3593"><path fill="#0b0b0d" fill-rule="nonzero" d="M 3088 2844 C 3099 2839 3098 2838 3087 2842 C 3058 2853 3028 2861 2996 2866 C 2949 2875 2904 2871 2862 2848 C 2853 2842 2852 2844 2859 2851 C 2890 2884 2951 2886 2991 2878 C 3024 2872 3056 2861 3088 2844 Z M 2204 2067 L 2203 2060 C 2203 2059 2203 2059 2202 2059 L 2202 2059 C 2172 2063 2149 2068 2149 2071 L 2149 2071 C 2150 2074 2174 2072 2203 2068 L 2203 2068 C 2204 2068 2204 2067 2204 2067 M 1779 2077 L 1780 2076 C 1782 2074 1780 2071 1778 2070 C 1763 2067 1748 2065 1732 2063 C 1722 2062 1713 2058 1703 2055 C 1703 2055 1703 2055 1703 2056 L 1702 2056 C 1702 2057 1703 2058 1703 2058 C 1726 2070 1748 2078 1769 2082 C 1774 2083 1777 2081 1779 2077 M 1743 2095 C 1751 2098 1756 2102 1758 2106 C 1769 2131 1780 2156 1792 2183 C 1802 2203 1816 2221 1824 2242 C 1832 2263 1837 2284 1838 2304 C 1839 2332 1840 2377 1842 2440 C 1842 2452 1843 2463 1844 2476 C 1844 2476 1844 2476 1845 2476 L 1845 2476 C 1845 2476 1846 2476 1846 2476 C 1848 2418 1847 2361 1847 2304 C 1847 2279 1846 2254 1844 2231 C 1841 2196 1828 2171 1809 2140 C 1804 2132 1795 2128 1787 2123 C 1781 2120 1777 2116 1772 2111 C 1763 2102 1754 2094 1744 2089 C 1729 2081 1714 2072 1699 2062 C 1694 2059 1689 2057 1684 2055 C 1678 2052 1677 2053 1683 2057 C 1701 2073 1722 2085 1743 2095 M 1582 2019 L 1630 2042 C 1630 2042 1630 2042 1630 2042 L 1630 2042 C 1631 2040 1625 2035 1616 2031 L 1599 2023 C 1590 2019 1583 2017 1582 2019 L 1582 2019 C 1582 2019 1582 2019 1582 2019 M 2171 1826 C 2139 1810 2112 1788 2088 1759 C 2078 1745 2069 1732 2061 1720 C 2061 1720 2061 1719 2060 1720 L 2060 1720 C 2059 1720 2058 1721 2059 1722 C 2075 1774 2118 1812 2169 1828 C 2170 1828 2170 1828 2171 1827 L 2171 1826 C 2171 1826 2171 1826 2171 1826 M 2467 1719 C 2450 1739 2425 1752 2399 1754 C 2397 1754 2397 1755 2397 1756 C 2397 1757 2398 1758 2399 1758 C 2419 1763 2459 1743 2469 1724 C 2470 1723 2470 1721 2469 1720 L 2469 1719 C 2469 1718 2468 1718 2467 1719 M 2423 1687 C 2438 1682 2465 1672 2470 1655 C 2471 1653 2470 1653 2469 1654 C 2451 1666 2433 1675 2414 1681 C 2407 1684 2407 1686 2414 1688 C 2416 1688 2419 1688 2423 1687 M 2112 1608 C 2102 1596 2092 1585 2080 1574 C 2075 1569 2070 1565 2064 1563 C 2061 1562 2060 1563 2063 1566 C 2076 1581 2090 1594 2104 1606 C 2106 1607 2109 1609 2111 1609 C 2112 1610 2112 1609 2112 1608 M 1780 1633 C 1778 1637 1776 1641 1774 1645 C 1774 1646 1774 1646 1774 1646 L 1774 1646 C 1775 1646 1775 1646 1775 1646 C 1796 1611 1816 1576 1843 1547 C 1859 1531 1874 1514 1890 1498 C 1891 1497 1891 1495 1890 1494 C 1889 1494 1889 1493 1888 1493 C 1887 1492 1885 1493 1884 1494 C 1844 1538 1804 1580 1780 1633 M 1722 1610 C 1750 1564 1783 1522 1820 1484 C 1822 1482 1821 1481 1819 1481 C 1809 1483 1801 1487 1794 1494 C 1769 1521 1745 1552 1723 1588 C 1693 1638 1671 1688 1656 1737 C 1656 1737 1657 1737 1657 1738 L 1658 1738 C 1658 1738 1658 1738 1658 1738 C 1678 1691 1699 1648 1722 1610 M 1590 1423 C 1596 1425 1602 1426 1608 1426 C 1611 1426 1611 1426 1608 1425 C 1579 1415 1552 1403 1527 1387 C 1513 1378 1500 1365 1487 1354 C 1486 1353 1484 1352 1483 1351 C 1478 1349 1478 1350 1480 1354 C 1503 1392 1549 1412 1590 1423 M 1482 1333 C 1520 1361 1560 1383 1603 1402 C 1656 1425 1709 1442 1760 1455 C 1777 1459 1807 1465 1850 1472 C 1856 1473 1862 1474 1868 1476 C 1882 1479 1897 1483 1907 1494 C 1920 1508 1933 1518 1952 1523 C 2023 1542 2091 1551 2156 1549 C 2185 1548 2213 1544 2240 1537 C 2240 1537 2240 1537 2240 1537 L 2240 1537 C 2240 1536 2240 1536 2240 1536 C 2189 1540 2136 1539 2083 1533 C 2047 1530 2013 1523 1980 1515 C 1966 1511 1953 1505 1942 1499 C 1927 1490 1915 1478 1898 1472 C 1886 1468 1874 1465 1861 1463 C 1816 1455 1770 1448 1727 1435 C 1638 1408 1554 1368 1482 1312 C 1464 1298 1449 1284 1436 1269 C 1431 1263 1428 1264 1428 1272 C 1428 1273 1429 1275 1432 1279 C 1445 1300 1462 1318 1482 1333 M 2270 1276 C 2222 1253 2186 1236 2160 1225 C 2157 1223 2153 1223 2150 1224 L 2139 1228 C 2136 1230 2136 1231 2140 1233 C 2207 1256 2275 1284 2342 1314 C 2343 1315 2343 1315 2343 1314 C 2343 1314 2343 1314 2343 1314 C 2343 1313 2343 1313 2343 1313 C 2322 1302 2297 1289 2270 1276 M 2167 1144 C 2184 1125 2203 1109 2231 1119 C 2244 1124 2256 1133 2272 1132 C 2308 1130 2345 1128 2382 1126 C 2388 1125 2388 1125 2382 1123 C 2348 1117 2309 1119 2274 1121 C 2269 1121 2265 1121 2261 1119 C 2235 1110 2207 1104 2182 1119 C 2168 1128 2156 1135 2139 1140 C 2135 1141 2135 1142 2139 1143 C 2146 1144 2154 1145 2163 1146 C 2165 1146 2166 1145 2167 1144 M 2370 1095 L 2415 1081 C 2415 1081 2415 1081 2415 1081 L 2415 1080 C 2415 1079 2405 1081 2392 1085 L 2391 1085 C 2379 1089 2369 1093 2370 1095 L 2370 1095 C 2370 1095 2370 1095 2370 1095 M 1066 1010 L 1070 1010 C 1070 1010 1071 1010 1071 1009 C 1071 1009 1071 1008 1070 1008 C 1070 1008 1070 1007 1069 1007 C 1066 1006 1065 1003 1067 999 C 1068 996 1069 996 1072 998 C 1078 1002 1085 1006 1091 1008 C 1109 1015 1123 1031 1133 1047 C 1133 1048 1133 1048 1134 1049 C 1135 1050 1136 1049 1135 1048 C 1129 1033 1120 1024 1110 1012 C 1109 1011 1109 1010 1110 1009 L 1111 1006 C 1112 1004 1111 1003 1109 1004 C 1105 1004 1102 1005 1098 1003 C 1087 999 1078 994 1072 987 C 1070 985 1065 986 1064 989 C 1062 993 1061 998 1060 1003 C 1060 1008 1057 1012 1054 1017 C 1053 1019 1049 1019 1047 1017 C 1035 995 1019 980 998 970 C 998 970 997 970 997 970 L 996 971 C 996 971 996 971 997 971 C 1002 975 1008 978 1013 982 C 1016 984 1020 988 1023 994 C 1030 1008 1042 1031 1056 1040 C 1062 1044 1063 1043 1059 1037 L 1054 1029 C 1053 1028 1054 1026 1055 1025 C 1059 1021 1062 1017 1063 1012 C 1064 1010 1065 1009 1066 1010 M 1063 973 C 1064 972 1062 969 1058 965 C 1055 961 1051 959 1051 960 C 1050 960 1052 964 1056 967 C 1059 971 1063 973 1063 973 M 1069 947 L 1084 966 C 1084 966 1084 966 1084 966 L 1085 966 C 1086 965 1085 959 1080 954 L 1080 953 C 1076 947 1071 944 1069 946 L 1069 946 C 1068 946 1068 946 1069 947 M 2100 1141 C 2095 1139 2089 1132 2085 1128 C 2080 1123 2074 1124 2068 1125 C 2031 1129 1991 1136 1960 1155 C 1958 1156 1959 1157 1961 1156 C 1973 1155 1985 1153 1997 1153 C 2020 1153 2043 1155 2066 1159 C 2083 1162 2094 1146 2111 1146 C 2113 1145 2114 1144 2112 1142 C 2068 1076 2036 1003 2017 924 C 2017 922 2016 921 2015 921 C 2013 920 2013 920 2013 922 C 2016 955 2023 986 2034 1017 C 2039 1029 2044 1041 2049 1053 C 2055 1067 2065 1085 2079 1108 C 2086 1119 2094 1129 2101 1140 C 2103 1142 2102 1142 2100 1141 M 2235 881 C 2235 881 2234 881 2235 882 C 2235 883 2236 885 2238 886 C 2255 895 2276 900 2299 902 C 2334 904 2353 880 2362 851 C 2363 850 2362 849 2361 849 C 2338 846 2319 848 2298 858 C 2278 868 2258 877 2235 881 M 2166 881 C 2167 880 2169 880 2171 879 C 2172 878 2172 876 2170 875 C 2149 869 2132 857 2115 843 C 2098 829 2078 825 2056 824 C 2054 824 2053 824 2054 826 C 2057 846 2065 861 2076 871 C 2098 891 2138 888 2166 881 M 2040 784 C 2023 778 2006 771 1989 764 C 1985 763 1981 764 1978 766 L 1976 768 C 1974 770 1974 772 1978 773 C 1999 780 2021 785 2042 788 C 2044 788 2044 787 2042 786 C 2042 785 2041 785 2040 784 M 1979 714 C 1979 713 1981 711 1983 710 C 2005 702 2032 704 2056 707 C 2076 709 2095 712 2114 714 C 2124 715 2124 714 2115 711 C 2111 710 2107 708 2100 707 C 2073 701 2043 697 2011 693 C 1977 688 1964 712 1982 740 C 1986 745 1991 749 1998 751 C 2009 754 2022 756 2035 759 C 2040 759 2044 760 2045 760 C 2054 759 2054 756 2046 753 C 2028 746 2011 738 1993 731 C 1987 728 1977 722 1979 714 M 2076 239 L 2088 239 C 2091 240 2093 241 2094 243 C 2094 244 2093 245 2092 246 C 2060 268 2026 291 1989 316 C 1884 388 1763 475 1626 577 C 1481 686 1332 802 1179 926 C 1178 926 1178 927 1178 928 C 1206 976 1198 1036 1149 1065 C 1147 1066 1148 1068 1149 1069 C 1174 1079 1198 1094 1220 1114 C 1223 1117 1227 1118 1231 1119 C 1256 1124 1276 1125 1301 1117 C 1338 1105 1379 1096 1417 1100 C 1432 1101 1442 1106 1448 1116 C 1449 1118 1450 1118 1452 1118 C 1504 1100 1558 1095 1613 1102 C 1617 1103 1621 1102 1625 1101 C 1642 1093 1659 1087 1675 1084 C 1676 1084 1677 1084 1676 1085 L 1663 1105 C 1661 1108 1662 1108 1664 1106 C 1675 1095 1683 1083 1687 1072 C 1693 1056 1704 1048 1719 1041 C 1735 1033 1753 1028 1772 1025 C 1773 1024 1774 1024 1774 1022 C 1776 1014 1781 1008 1788 1004 C 1805 996 1824 991 1842 987 C 1888 978 1933 973 1977 971 C 1983 971 1992 972 1995 977 C 2000 986 1998 994 1992 1001 C 1984 1011 1978 1024 1975 1040 C 1972 1052 1965 1060 1955 1067 C 1929 1087 1905 1108 1893 1139 C 1893 1139 1893 1140 1894 1140 L 1895 1141 C 1895 1141 1895 1141 1895 1141 C 1903 1125 1914 1110 1929 1097 C 1939 1088 1950 1080 1960 1072 C 1961 1071 1962 1071 1963 1073 C 1964 1080 1968 1090 1962 1096 C 1946 1113 1934 1133 1927 1156 C 1927 1157 1927 1157 1927 1158 L 1928 1158 C 1928 1158 1928 1158 1929 1158 C 1939 1132 1954 1112 1974 1097 C 1975 1097 1976 1096 1975 1095 C 1968 1083 1969 1071 1974 1058 C 1979 1047 1984 1034 1988 1022 C 1989 1017 1992 1013 1995 1010 C 1999 1006 2002 1007 2004 1011 C 2011 1021 2019 1031 2026 1040 C 2031 1045 2034 1048 2036 1049 C 2043 1053 2044 1051 2039 1045 C 2032 1036 2026 1027 2019 1018 C 2014 1013 2009 1003 2002 988 C 1988 958 1987 924 1977 892 C 1974 884 1972 875 1970 866 C 1963 842 1962 815 1964 788 C 1965 782 1963 778 1962 772 C 1961 771 1961 770 1961 768 C 1963 762 1967 757 1972 752 C 1973 750 1974 748 1972 746 C 1963 729 1956 707 1971 692 C 1976 687 1979 684 1980 677 C 1988 640 2002 606 2022 576 C 2054 527 2115 492 2171 474 C 2259 447 2322 488 2382 547 C 2432 596 2457 653 2453 724 C 2453 726 2453 727 2454 728 C 2461 738 2473 746 2463 759 C 2459 764 2455 770 2452 777 C 2447 786 2452 796 2464 797 C 2493 799 2528 802 2568 807 C 2608 811 2643 820 2674 845 C 2682 852 2681 853 2671 850 C 2635 836 2599 834 2560 835 C 2545 835 2530 831 2516 826 C 2507 823 2498 823 2489 827 C 2488 828 2488 828 2489 829 C 2517 843 2540 854 2559 861 C 2606 878 2637 896 2660 940 C 2665 949 2664 950 2657 943 C 2632 920 2605 902 2575 889 C 2573 888 2572 888 2573 890 C 2575 895 2578 899 2580 904 C 2585 914 2596 950 2591 959 C 2590 961 2587 961 2586 959 C 2557 911 2518 873 2468 844 C 2446 831 2424 820 2403 809 C 2400 807 2400 806 2404 805 L 2432 797 C 2435 796 2438 793 2438 790 L 2437 773 C 2437 772 2438 772 2438 771 C 2439 771 2439 771 2439 771 C 2440 771 2441 770 2441 770 C 2448 760 2450 749 2446 737 C 2445 734 2443 732 2440 731 C 2437 731 2434 730 2431 730 C 2395 731 2358 731 2320 732 C 2320 732 2319 733 2319 733 L 2319 734 C 2319 734 2319 734 2319 734 C 2345 736 2374 738 2407 740 C 2418 741 2433 740 2442 746 C 2445 748 2446 751 2444 753 C 2438 765 2420 767 2407 767 C 2392 767 2376 767 2361 767 C 2361 767 2360 767 2360 768 L 2360 769 C 2360 769 2360 769 2361 769 C 2381 773 2402 776 2423 778 C 2428 778 2431 780 2432 785 C 2432 786 2432 787 2431 787 C 2427 789 2423 790 2419 791 C 2411 792 2403 795 2394 796 C 2341 801 2286 805 2230 806 C 2223 806 2217 807 2213 807 C 2208 808 2208 809 2213 809 C 2264 814 2318 814 2374 809 C 2378 809 2382 809 2386 811 C 2402 816 2418 823 2434 831 C 2438 834 2442 837 2446 841 C 2447 841 2447 843 2447 844 L 2410 935 C 2409 937 2409 937 2411 936 C 2425 928 2452 911 2464 931 C 2474 949 2468 984 2462 1003 C 2461 1004 2462 1005 2462 1006 C 2476 1027 2485 1048 2490 1070 C 2490 1072 2491 1073 2493 1073 C 2534 1090 2565 1160 2560 1203 C 2560 1204 2560 1205 2561 1206 C 2581 1229 2593 1256 2595 1288 C 2599 1327 2596 1372 2578 1404 C 2577 1406 2577 1407 2578 1408 C 2584 1424 2585 1444 2584 1462 C 2583 1478 2578 1492 2569 1504 C 2547 1533 2520 1556 2482 1562 C 2464 1565 2446 1567 2427 1566 C 2386 1565 2345 1561 2303 1559 C 2285 1559 2267 1558 2247 1556 C 2247 1556 2247 1556 2247 1556 C 2247 1557 2247 1557 2247 1557 C 2285 1565 2324 1572 2365 1576 C 2384 1579 2402 1580 2421 1581 C 2451 1583 2480 1582 2506 1567 C 2530 1552 2549 1535 2568 1514 C 2572 1509 2573 1510 2571 1516 C 2568 1524 2565 1532 2562 1540 C 2545 1579 2519 1611 2486 1637 C 2484 1638 2483 1639 2483 1641 C 2482 1658 2478 1674 2466 1686 C 2465 1687 2465 1688 2466 1689 C 2473 1702 2481 1713 2473 1727 C 2467 1737 2458 1744 2454 1755 C 2441 1787 2399 1789 2385 1819 C 2377 1837 2384 1857 2379 1876 C 2376 1887 2370 1897 2360 1907 C 2359 1908 2358 1908 2357 1907 C 2348 1901 2341 1891 2341 1879 C 2342 1856 2324 1838 2311 1821 C 2301 1807 2292 1789 2285 1767 C 2276 1743 2268 1717 2259 1692 C 2259 1691 2259 1691 2258 1691 L 2258 1691 C 2258 1691 2258 1692 2258 1692 C 2267 1727 2275 1759 2284 1787 C 2292 1811 2305 1830 2320 1851 C 2329 1863 2333 1877 2332 1892 C 2332 1902 2341 1910 2348 1916 C 2359 1926 2362 1939 2354 1953 C 2346 1969 2340 1984 2334 2000 C 2333 2002 2332 2003 2329 2003 C 2308 2000 2287 1999 2265 1998 C 2233 1996 2200 1997 2167 1995 C 2158 1995 2158 1993 2167 1991 C 2184 1987 2202 1981 2220 1972 C 2225 1970 2229 1967 2233 1963 C 2235 1961 2235 1961 2232 1962 C 2211 1972 2189 1979 2167 1983 C 2150 1987 2129 1989 2103 1991 C 2061 1994 2023 1992 1990 1985 C 1984 1984 1979 1982 1974 1980 C 1973 1979 1972 1978 1971 1977 C 1965 1965 1962 1952 1944 1955 C 1934 1956 1927 1953 1921 1944 C 1918 1939 1912 1938 1906 1941 C 1893 1947 1889 1948 1878 1937 C 1871 1931 1862 1933 1854 1929 C 1802 1908 1751 1881 1701 1855 C 1697 1853 1694 1851 1692 1851 C 1687 1850 1687 1851 1691 1854 C 1739 1880 1785 1908 1829 1937 C 1841 1946 1854 1947 1866 1939 C 1867 1938 1868 1938 1868 1939 L 1869 1940 C 1869 1940 1869 1940 1869 1940 C 1862 1946 1856 1952 1850 1958 C 1844 1964 1840 1971 1835 1979 C 1834 1980 1833 1980 1833 1979 C 1825 1965 1815 1954 1804 1945 C 1769 1919 1732 1897 1693 1877 C 1692 1877 1692 1877 1692 1877 L 1692 1877 C 1691 1878 1691 1878 1692 1879 C 1721 1900 1749 1921 1779 1943 C 1794 1955 1818 1975 1825 1992 C 1826 1994 1826 1995 1825 1996 C 1820 2015 1815 2032 1809 2048 C 1807 2053 1805 2057 1801 2060 C 1800 2061 1798 2061 1797 2059 C 1797 2057 1796 2055 1795 2054 C 1783 2044 1773 2032 1765 2019 C 1744 1989 1726 1952 1693 1933 C 1677 1923 1655 1913 1628 1903 C 1627 1902 1627 1903 1627 1903 L 1626 1904 C 1626 1904 1626 1905 1626 1905 C 1643 1912 1661 1922 1682 1934 C 1701 1946 1715 1960 1725 1977 C 1742 2008 1758 2039 1787 2060 C 1789 2062 1791 2063 1794 2064 C 1796 2064 1796 2067 1795 2069 C 1784 2080 1780 2094 1782 2110 C 1783 2115 1785 2118 1789 2120 C 1812 2134 1837 2141 1864 2141 C 1867 2141 1870 2143 1872 2145 C 1898 2187 1922 2230 1936 2278 C 1953 2334 1964 2393 1970 2450 C 1970 2451 1970 2451 1970 2451 L 1972 2451 C 1972 2451 1972 2450 1972 2450 C 1970 2399 1963 2348 1951 2297 C 1937 2239 1914 2186 1882 2138 C 1881 2137 1881 2135 1883 2133 L 1898 2118 C 1900 2116 1902 2116 1904 2118 C 1913 2129 1920 2140 1925 2151 C 1959 2237 1986 2331 2010 2418 C 2020 2452 2028 2485 2035 2519 C 2035 2522 2036 2522 2037 2520 C 2039 2512 2042 2504 2045 2497 C 2047 2492 2046 2490 2045 2486 C 2025 2405 2002 2325 1975 2246 C 1970 2231 1964 2215 1957 2197 C 1944 2166 1932 2135 1910 2110 C 1908 2108 1908 2105 1910 2104 C 1925 2086 1938 2066 1950 2043 C 1951 2041 1953 2041 1954 2042 C 1960 2048 1965 2053 1970 2058 C 2000 2085 2021 2114 2038 2151 C 2059 2193 2077 2237 2094 2283 C 2094 2284 2094 2284 2094 2284 L 2094 2284 C 2095 2283 2095 2283 2095 2283 C 2081 2235 2066 2188 2046 2143 C 2042 2134 2037 2127 2032 2119 C 2029 2115 2029 2114 2034 2116 C 2079 2131 2124 2134 2170 2122 C 2186 2118 2200 2109 2212 2095 C 2214 2093 2214 2090 2214 2087 C 2214 2086 2214 2086 2214 2085 C 2212 2083 2211 2082 2209 2084 C 2199 2094 2187 2101 2173 2105 C 2130 2116 2080 2112 2039 2100 C 2027 2097 2018 2091 2010 2082 C 1995 2064 1978 2048 1960 2033 C 1960 2033 1960 2032 1961 2031 C 1961 2031 1962 2031 1963 2031 C 1989 2036 2014 2039 2037 2042 C 2045 2043 2045 2043 2037 2040 C 2020 2034 2002 2028 1981 2022 C 1981 2022 1981 2022 1981 2021 L 1981 2021 C 1981 2020 1981 2020 1981 2020 C 1992 2022 2003 2024 2014 2024 C 2032 2023 2050 2025 2069 2028 C 2069 2028 2069 2028 2070 2027 L 2070 2027 C 2070 2027 2070 2027 2069 2027 C 2060 2023 2050 2020 2041 2018 C 2017 2012 1996 2007 1977 2000 C 1974 1999 1972 1997 1972 1994 L 1972 1992 C 1972 1989 1973 1988 1976 1989 C 1991 1994 2006 1999 2022 2001 C 2069 2010 2115 2014 2159 2013 C 2174 2013 2197 2014 2212 2007 C 2213 2007 2214 2007 2215 2007 C 2225 2010 2230 2022 2231 2031 C 2232 2039 2223 2046 2218 2050 C 2215 2052 2214 2055 2215 2058 C 2217 2063 2220 2067 2223 2070 C 2224 2071 2224 2072 2224 2073 L 2225 2088 C 2225 2089 2226 2090 2227 2090 C 2254 2098 2268 2109 2290 2122 C 2304 2131 2322 2136 2337 2143 C 2359 2154 2375 2170 2384 2192 C 2387 2197 2390 2207 2395 2221 C 2401 2236 2410 2252 2422 2269 C 2464 2326 2500 2383 2524 2450 C 2531 2472 2538 2492 2544 2513 C 2555 2545 2571 2574 2594 2598 C 2621 2627 2649 2655 2654 2694 C 2656 2710 2642 2716 2629 2717 C 2616 2718 2603 2719 2589 2721 C 2589 2721 2589 2721 2589 2721 L 2589 2722 C 2589 2722 2589 2723 2590 2723 C 2606 2724 2622 2724 2639 2723 C 2656 2722 2675 2715 2670 2693 C 2664 2670 2648 2647 2633 2628 C 2598 2586 2567 2549 2547 2498 C 2539 2478 2532 2458 2524 2437 C 2499 2372 2466 2310 2425 2252 C 2414 2236 2407 2224 2405 2214 C 2403 2204 2400 2195 2396 2188 C 2391 2176 2380 2162 2365 2149 C 2339 2124 2309 2105 2276 2091 C 2261 2085 2245 2078 2228 2072 C 2226 2071 2226 2070 2228 2070 C 2265 2056 2308 2043 2336 2081 C 2338 2084 2339 2087 2341 2090 C 2342 2091 2343 2091 2345 2091 C 2365 2089 2388 2093 2412 2102 C 2458 2119 2499 2142 2534 2169 C 2535 2171 2537 2171 2539 2171 C 2564 2172 2589 2175 2615 2181 C 2629 2185 2646 2190 2664 2197 C 2721 2219 2776 2240 2830 2261 C 2906 2290 2971 2340 3048 2365 C 3059 2369 3069 2377 3077 2389 C 3087 2404 3096 2419 3106 2433 C 3123 2460 3146 2483 3175 2502 C 3177 2504 3178 2505 3180 2507 C 3180 2508 3181 2509 3181 2511 C 3181 2533 3205 2562 3222 2579 C 3223 2581 3224 2583 3224 2585 C 3223 2631 3215 2674 3181 2705 C 3180 2707 3180 2708 3181 2709 C 3194 2731 3193 2766 3190 2790 C 3190 2791 3191 2792 3192 2792 C 3197 2792 3202 2795 3204 2800 C 3211 2810 3211 2821 3204 2832 C 3203 2833 3203 2834 3204 2834 C 3216 2842 3218 2853 3212 2866 C 3211 2869 3209 2871 3207 2874 C 3207 2874 3207 2875 3207 2876 C 3218 2894 3214 2922 3207 2940 C 3207 2941 3207 2943 3207 2944 C 3213 2958 3218 2972 3223 2987 C 3224 2991 3224 2994 3224 2998 C 3224 2999 3224 3000 3225 3001 C 3231 3005 3237 3006 3240 3013 C 3245 3026 3244 3039 3236 3051 C 3235 3053 3234 3056 3235 3059 C 3237 3066 3239 3074 3240 3081 C 3242 3088 3239 3093 3236 3098 C 3236 3100 3236 3101 3237 3102 C 3245 3109 3247 3119 3242 3130 C 3242 3132 3242 3132 3244 3133 C 3245 3133 3247 3132 3248 3131 C 3251 3127 3253 3123 3254 3118 C 3256 3115 3261 3114 3263 3118 C 3269 3129 3261 3158 3259 3170 C 3258 3174 3256 3177 3254 3180 C 3253 3182 3253 3183 3254 3184 C 3259 3194 3260 3203 3254 3211 C 3253 3214 3255 3218 3258 3217 C 3279 3214 3288 3249 3278 3262 C 3278 3263 3277 3264 3277 3266 C 3278 3269 3278 3271 3277 3274 C 3276 3276 3277 3277 3279 3277 C 3289 3277 3297 3283 3300 3296 C 3301 3298 3301 3300 3300 3302 C 3298 3310 3301 3315 3310 3317 C 3321 3319 3328 3328 3332 3338 C 3334 3341 3337 3344 3341 3344 C 3346 3345 3350 3347 3353 3351 C 3357 3356 3361 3359 3367 3360 C 3368 3360 3369 3361 3369 3362 C 3369 3364 3368 3366 3367 3366 C 3365 3367 3364 3369 3365 3370 C 3368 3373 3371 3374 3374 3374 C 3376 3374 3376 3374 3376 3372 L 3377 3364 C 3377 3363 3378 3362 3380 3363 C 3392 3368 3402 3376 3409 3387 C 3412 3392 3419 3394 3424 3393 C 3442 3391 3442 3406 3454 3413 C 3463 3418 3463 3428 3471 3435 C 3482 3444 3494 3453 3506 3462 C 3507 3463 3509 3463 3510 3463 C 3516 3462 3521 3461 3526 3460 C 3546 3455 3566 3459 3582 3472 C 3592 3479 3603 3477 3613 3481 C 3622 3483 3632 3488 3642 3493 C 3651 3498 3655 3504 3656 3513 C 3656 3523 3658 3532 3660 3541 C 3661 3545 3659 3548 3655 3549 C 3616 3560 3573 3559 3531 3559 C 3475 3558 3426 3556 3383 3553 C 3322 3548 3265 3541 3206 3543 C 3159 3544 3107 3547 3061 3534 C 3047 3530 3013 3516 3008 3500 C 2997 3469 2999 3436 3030 3418 C 3034 3417 3035 3414 3033 3410 C 3030 3402 3028 3394 3028 3386 C 3027 3374 3034 3368 3042 3361 C 3043 3360 3044 3359 3044 3357 C 3042 3350 3039 3344 3033 3341 C 3013 3329 3014 3301 3035 3292 C 3036 3291 3036 3290 3036 3289 C 3036 3284 3038 3278 3042 3274 C 3043 3272 3043 3269 3041 3268 C 3034 3261 3026 3248 3025 3237 C 3024 3233 3022 3230 3017 3230 C 3009 3229 3002 3224 3000 3216 C 2996 3203 2999 3192 3010 3183 C 3011 3182 3011 3181 3011 3179 C 3000 3143 2992 3112 2985 3086 C 2984 3083 2984 3081 2980 3080 C 2952 3068 2953 3044 2951 3017 C 2951 3016 2950 3015 2949 3014 C 2930 3005 2917 2990 2910 2971 C 2907 2966 2906 2960 2900 2958 C 2886 2951 2878 2939 2876 2921 C 2876 2919 2875 2918 2874 2918 C 2859 2915 2850 2904 2849 2887 C 2849 2885 2849 2884 2850 2883 C 2851 2882 2851 2881 2852 2879 C 2852 2878 2852 2877 2851 2876 C 2840 2861 2828 2848 2815 2836 C 2813 2835 2813 2834 2816 2834 C 2835 2836 2855 2835 2875 2834 C 2876 2834 2877 2834 2878 2835 C 2889 2841 2901 2846 2913 2852 C 2966 2876 3016 2862 3058 2824 C 3070 2813 3081 2802 3092 2790 C 3093 2789 3093 2788 3093 2786 C 3092 2781 3089 2780 3083 2781 C 3082 2781 3080 2782 3079 2783 C 3056 2807 3033 2829 3004 2845 C 2981 2858 2973 2840 2959 2827 C 2958 2826 2957 2826 2955 2826 C 2947 2826 2939 2826 2930 2824 C 2929 2824 2927 2823 2926 2822 C 2926 2822 2926 2820 2927 2820 L 2985 2803 C 2985 2803 2985 2802 2985 2802 L 2985 2801 C 2985 2801 2985 2801 2985 2801 C 2966 2804 2946 2808 2923 2813 C 2862 2829 2800 2829 2740 2812 C 2722 2807 2706 2799 2691 2788 C 2690 2787 2690 2786 2690 2784 C 2691 2783 2691 2783 2692 2783 C 2755 2780 2808 2755 2851 2709 C 2851 2709 2851 2708 2851 2708 L 2851 2708 C 2851 2708 2851 2708 2851 2708 C 2843 2715 2835 2721 2827 2727 C 2791 2753 2751 2768 2707 2771 C 2689 2772 2672 2772 2653 2771 C 2605 2769 2556 2765 2508 2760 C 2475 2757 2436 2751 2405 2737 C 2403 2736 2402 2736 2400 2737 C 2369 2751 2338 2765 2307 2779 C 2295 2783 2283 2787 2271 2791 C 2269 2791 2268 2794 2270 2795 L 2272 2798 C 2274 2799 2273 2802 2271 2803 C 2254 2809 2229 2814 2213 2805 C 2201 2797 2190 2788 2182 2776 C 2177 2769 2175 2770 2176 2778 C 2177 2784 2178 2790 2178 2796 C 2180 2837 2182 2883 2183 2931 C 2183 2935 2184 2938 2186 2941 C 2195 2954 2199 2969 2193 2984 C 2188 2994 2181 3001 2174 3009 C 2158 3027 2140 3044 2122 3059 C 2120 3061 2116 3064 2109 3068 C 2102 3072 2094 3068 2093 3060 C 2091 3044 2095 3028 2099 3012 C 2101 3006 2100 3000 2100 2994 C 2091 2885 2080 2775 2066 2665 C 2065 2664 2065 2663 2063 2662 C 2056 2658 2049 2652 2043 2645 C 2041 2643 2039 2642 2036 2644 C 2014 2658 1994 2655 1972 2649 C 1969 2648 1968 2649 1967 2651 C 1954 2705 1943 2758 1935 2810 C 1928 2857 1916 2906 1900 2956 C 1896 2971 1875 3043 1849 3018 C 1829 2998 1809 2985 1789 2979 C 1771 2973 1753 2968 1735 2962 C 1723 2958 1719 2950 1722 2937 C 1724 2929 1726 2922 1729 2914 C 1744 2876 1760 2837 1777 2798 C 1802 2741 1816 2684 1824 2619 C 1824 2617 1824 2616 1822 2616 C 1807 2614 1792 2609 1777 2602 C 1755 2590 1730 2576 1706 2578 C 1680 2581 1657 2584 1636 2565 C 1635 2564 1634 2564 1634 2565 C 1602 2584 1574 2607 1550 2634 C 1537 2648 1526 2660 1517 2669 C 1516 2669 1516 2670 1516 2672 C 1515 2704 1505 2744 1494 2772 C 1483 2803 1459 2827 1435 2850 C 1372 2908 1293 2963 1204 2959 C 1183 2958 1162 2952 1142 2940 C 1140 2938 1138 2936 1136 2935 C 1135 2934 1134 2934 1133 2936 C 1127 2955 1116 2969 1099 2979 C 1097 2980 1095 2983 1095 2985 C 1094 2996 1092 3007 1088 3018 C 1088 3020 1088 3021 1088 3022 C 1092 3044 1080 3059 1059 3063 C 1058 3063 1057 3064 1057 3065 C 1050 3085 1036 3095 1016 3095 C 1015 3095 1014 3096 1013 3097 C 1009 3108 1002 3118 994 3127 C 993 3128 992 3129 992 3131 C 993 3133 993 3134 994 3136 C 997 3143 993 3152 988 3158 C 982 3165 974 3169 965 3168 C 961 3168 958 3165 954 3165 C 953 3164 952 3165 951 3166 C 943 3172 935 3177 925 3181 C 924 3181 923 3183 923 3185 L 924 3189 C 924 3190 924 3192 923 3194 C 917 3213 905 3224 887 3228 C 885 3228 884 3229 884 3231 C 880 3239 875 3247 868 3255 C 867 3256 867 3257 867 3258 C 872 3268 871 3278 862 3287 C 860 3289 859 3292 860 3295 C 862 3300 859 3304 856 3309 C 849 3322 838 3327 825 3325 C 823 3325 823 3325 822 3326 C 817 3343 806 3349 789 3344 C 788 3344 787 3345 786 3346 C 783 3354 778 3361 772 3367 C 770 3369 771 3372 773 3372 C 781 3372 785 3377 784 3386 C 781 3409 765 3424 745 3434 C 744 3434 743 3436 745 3437 L 750 3441 C 751 3442 751 3442 752 3444 C 752 3448 751 3452 750 3457 C 741 3480 727 3492 708 3492 C 706 3492 705 3493 705 3495 C 705 3500 704 3504 701 3509 C 700 3510 700 3511 701 3513 C 703 3516 705 3520 707 3523 C 715 3535 717 3549 713 3563 C 706 3589 693 3610 676 3628 C 675 3629 674 3630 675 3631 C 682 3646 679 3657 666 3665 C 665 3666 665 3666 665 3667 C 671 3682 666 3692 651 3700 C 650 3700 650 3701 650 3702 C 654 3717 649 3726 635 3729 C 633 3729 632 3730 632 3732 C 633 3745 627 3752 615 3752 C 614 3752 613 3753 612 3754 C 600 3768 578 3759 567 3747 C 563 3744 559 3742 554 3741 C 498 3731 442 3720 385 3708 C 377 3706 364 3704 361 3696 C 359 3688 356 3680 354 3671 C 354 3670 353 3668 352 3667 C 348 3665 342 3663 341 3659 C 339 3657 340 3654 342 3652 C 342 3651 343 3651 344 3650 L 349 3649 C 351 3649 351 3648 350 3647 C 346 3642 347 3636 352 3629 C 357 3623 363 3618 369 3613 C 371 3611 371 3609 370 3607 C 365 3594 372 3589 381 3582 C 382 3581 382 3580 383 3579 C 384 3569 389 3563 398 3561 C 400 3560 400 3560 400 3558 C 399 3542 406 3533 423 3532 C 425 3532 427 3531 427 3529 C 430 3518 437 3512 448 3511 C 451 3510 453 3508 451 3505 C 449 3498 450 3491 454 3485 C 461 3471 470 3458 481 3447 C 482 3446 482 3445 480 3444 C 479 3444 479 3444 478 3444 C 477 3446 474 3444 475 3442 C 480 3427 487 3407 499 3398 C 507 3392 515 3388 525 3384 C 528 3383 529 3381 529 3378 C 527 3363 522 3348 531 3334 C 540 3321 549 3321 560 3332 C 562 3335 564 3334 564 3331 C 568 3301 580 3288 606 3274 C 617 3269 620 3256 612 3246 C 608 3242 606 3238 606 3233 C 606 3231 606 3230 605 3228 C 597 3218 590 3211 591 3197 C 593 3185 598 3178 609 3177 C 618 3176 625 3188 629 3195 C 631 3197 632 3197 633 3194 C 635 3187 638 3181 643 3176 C 644 3175 644 3174 644 3172 C 642 3141 647 3115 669 3093 C 670 3092 670 3090 670 3089 C 669 3084 669 3079 670 3073 C 670 3072 670 3070 669 3068 C 659 3052 653 3028 674 3017 C 685 3012 688 3020 694 3026 C 695 3028 696 3027 697 3026 C 701 3019 706 3014 713 3010 C 714 3010 715 3008 715 3007 C 709 2969 712 2937 738 2907 C 739 2905 739 2904 738 2903 C 727 2895 722 2885 721 2872 C 720 2856 734 2851 747 2860 C 751 2863 752 2862 750 2857 C 747 2851 747 2845 749 2839 C 752 2829 762 2821 773 2825 C 774 2826 776 2825 776 2824 C 789 2790 810 2757 841 2725 C 848 2718 856 2711 865 2706 C 866 2705 866 2704 866 2703 C 838 2675 844 2645 865 2617 C 895 2579 933 2548 972 2516 C 985 2505 1001 2500 1020 2500 C 1020 2500 1020 2499 1020 2499 C 1015 2484 1023 2455 1029 2439 C 1038 2417 1048 2397 1060 2378 C 1078 2351 1096 2322 1114 2292 C 1125 2274 1138 2256 1153 2240 C 1191 2198 1234 2160 1278 2125 C 1285 2119 1288 2110 1295 2103 C 1322 2075 1348 2054 1373 2039 C 1391 2028 1412 2017 1437 2005 C 1448 2000 1467 1989 1473 1979 C 1476 1974 1475 1973 1471 1977 C 1458 1987 1446 1996 1431 2002 C 1402 2015 1373 2029 1349 2049 C 1340 2057 1330 2066 1320 2076 C 1318 2077 1316 2076 1316 2074 C 1316 2037 1331 2000 1370 1989 C 1397 1981 1424 1974 1450 1961 C 1451 1960 1451 1960 1450 1959 L 1402 1891 C 1401 1890 1399 1889 1397 1890 C 1352 1920 1299 1933 1247 1945 C 1244 1946 1243 1945 1246 1943 C 1257 1933 1270 1924 1284 1916 C 1289 1913 1293 1909 1294 1903 C 1296 1897 1300 1892 1306 1888 C 1328 1872 1350 1857 1372 1841 C 1373 1841 1373 1840 1372 1839 C 1330 1785 1292 1728 1257 1667 C 1254 1662 1250 1658 1245 1654 C 1240 1650 1236 1644 1234 1637 C 1230 1621 1235 1613 1248 1603 C 1256 1596 1264 1589 1273 1583 C 1291 1568 1306 1574 1315 1596 C 1315 1597 1315 1598 1315 1599 C 1313 1607 1319 1610 1322 1615 C 1355 1669 1388 1720 1423 1768 C 1427 1773 1431 1778 1435 1783 C 1435 1784 1436 1784 1437 1783 C 1463 1763 1488 1740 1513 1720 C 1517 1717 1522 1714 1528 1711 C 1537 1706 1552 1715 1547 1726 C 1545 1731 1544 1736 1545 1741 C 1547 1751 1542 1756 1537 1763 C 1517 1784 1495 1802 1472 1818 C 1471 1819 1471 1821 1472 1822 L 1483 1829 C 1484 1829 1485 1831 1484 1832 C 1484 1837 1485 1841 1488 1845 C 1503 1864 1518 1885 1534 1907 C 1535 1908 1535 1909 1534 1910 L 1517 1936 C 1517 1937 1517 1937 1517 1937 L 1518 1937 C 1518 1937 1518 1937 1518 1937 C 1533 1916 1548 1897 1568 1878 C 1570 1877 1571 1877 1571 1879 C 1571 1880 1572 1880 1572 1880 C 1573 1881 1574 1881 1574 1880 C 1580 1875 1580 1866 1588 1862 C 1591 1861 1592 1859 1591 1855 C 1590 1854 1590 1854 1589 1853 C 1588 1853 1587 1853 1587 1852 C 1586 1851 1586 1850 1586 1849 C 1588 1845 1591 1841 1594 1838 C 1602 1830 1610 1822 1618 1814 C 1629 1804 1639 1813 1648 1819 C 1651 1821 1652 1821 1649 1817 C 1647 1815 1645 1813 1642 1811 C 1624 1795 1621 1776 1632 1756 C 1634 1753 1634 1749 1633 1746 C 1623 1722 1650 1664 1662 1641 C 1663 1639 1663 1637 1662 1635 C 1647 1609 1641 1588 1665 1564 C 1666 1563 1666 1561 1665 1559 C 1650 1526 1677 1482 1693 1453 C 1694 1451 1693 1450 1691 1450 C 1690 1450 1689 1451 1688 1452 C 1676 1464 1662 1470 1646 1471 C 1624 1473 1603 1470 1583 1462 C 1570 1457 1558 1454 1548 1452 C 1536 1450 1523 1453 1510 1452 C 1477 1448 1452 1435 1433 1413 C 1432 1411 1431 1412 1431 1413 C 1431 1415 1431 1416 1432 1416 C 1437 1425 1441 1433 1446 1440 C 1447 1443 1447 1446 1444 1448 C 1429 1458 1414 1459 1396 1454 C 1382 1451 1368 1448 1354 1447 C 1329 1444 1304 1449 1280 1456 C 1277 1457 1274 1456 1272 1455 C 1264 1450 1255 1445 1246 1440 C 1222 1427 1205 1407 1201 1380 C 1200 1372 1201 1365 1201 1358 C 1201 1353 1200 1352 1198 1357 C 1179 1396 1153 1354 1141 1340 C 1130 1327 1117 1317 1102 1310 C 1090 1305 1081 1292 1074 1281 C 1073 1279 1070 1279 1069 1280 C 1056 1290 1042 1292 1027 1287 C 1012 1280 998 1273 986 1265 C 975 1257 972 1248 965 1236 C 965 1235 964 1235 962 1235 C 959 1234 956 1234 953 1234 C 940 1235 926 1229 915 1221 C 896 1209 877 1195 858 1181 C 857 1180 857 1178 858 1177 C 865 1172 871 1165 877 1158 C 877 1158 877 1157 877 1157 L 876 1157 C 875 1156 874 1156 873 1156 C 864 1163 855 1171 844 1180 C 793 1224 744 1266 697 1305 C 680 1319 663 1331 644 1337 C 640 1338 636 1338 632 1336 C 610 1325 602 1312 593 1290 C 590 1285 593 1280 596 1276 C 605 1264 616 1253 627 1243 C 686 1195 742 1149 796 1107 C 798 1106 798 1104 798 1102 C 789 1065 795 1024 833 1008 C 857 998 881 988 906 978 C 908 978 908 977 909 976 C 909 973 909 971 909 968 C 909 957 918 946 927 940 C 941 930 958 921 977 912 C 987 908 996 905 1006 904 C 1007 904 1008 904 1009 902 C 1032 858 1094 857 1132 880 C 1133 881 1135 881 1136 880 C 1236 802 1328 732 1415 668 C 1607 525 1798 395 1988 279 C 2016 261 2044 245 2076 239"/><path fill="#0b0b0d" fill-rule="nonzero" d="M 1099 1906 C 1116 1916 1137 1913 1157 1910 C 1196 1904 1236 1900 1276 1897 C 1280 1896 1284 1896 1287 1896 C 1288 1897 1289 1897 1289 1898 C 1288 1903 1286 1906 1282 1908 C 1272 1915 1262 1923 1252 1931 C 1221 1955 1182 1974 1145 1980 C 1121 1984 1098 1981 1076 1970 C 1062 1963 1046 1955 1031 1946 C 981 1920 924 1902 867 1903 C 859 1903 850 1904 841 1904 C 834 1904 833 1903 840 1901 C 887 1885 927 1855 947 1810 C 948 1809 950 1808 951 1809 C 989 1828 1023 1854 1057 1879 C 1071 1890 1085 1899 1099 1906"/><path fill="#0b0b0d" fill-rule="nonzero" d="M 1556 1884 C 1552 1889 1548 1893 1545 1897 C 1543 1899 1543 1899 1543 1897 C 1545 1891 1548 1886 1551 1881 C 1552 1881 1552 1881 1553 1881 L 1555 1882 C 1556 1882 1556 1883 1556 1884"/><path fill="#0b0b0d" fill-rule="nonzero" d="M 1875 1977 C 1886 1974 1894 1964 1901 1955 C 1903 1952 1906 1950 1910 1949 C 1912 1948 1914 1950 1915 1952 L 1920 1963 C 1921 1967 1924 1969 1928 1968 L 1948 1967 C 1951 1967 1954 1968 1955 1970 C 1961 1980 1962 1990 1958 2001 C 1941 2050 1914 2091 1876 2123 C 1873 2125 1869 2123 1869 2120 L 1870 2091 C 1871 2084 1869 2084 1866 2090 C 1861 2100 1857 2111 1854 2123 C 1854 2124 1853 2125 1851 2125 C 1832 2124 1814 2119 1799 2110 C 1788 2104 1796 2086 1801 2079 C 1807 2069 1818 2059 1821 2048 C 1826 2033 1830 2019 1833 2004 C 1839 1981 1852 1963 1871 1948 C 1872 1948 1873 1948 1874 1948 L 1881 1953 C 1886 1956 1886 1960 1883 1963 L 1873 1974 C 1870 1977 1871 1978 1875 1977"/></svg>