<svg xmlns="http://www.w3.org/2000/svg" viewBox="57.66 196.75 784.88 1121.53" width="785" height="1122">
<path fill-rule="evenodd" fill="#0b0b0d" fill-opacity="1" d="M 840.539062 1225.1875 L 59.664062 1225.1875 L 59.664062 1316.28125 L 840.539062 1316.28125 L 840.539062 1225.1875 "/>
<path fill-rule="evenodd" fill="#0b0b0d" fill-opacity="1" d="M 71.191406 1206.410156 L 59.664062 1206.410156 L 59.664062 1299.054688 L 71.191406 1299.054688 L 71.191406 1206.410156 "/>
<path fill-rule="evenodd" fill="#0b0b0d" fill-opacity="1" d="M 76.421875 1220.265625 L 59.664062 1220.265625 L 59.664062 1225.1875 L 76.421875 1225.1875 L 76.421875 1220.265625 "/>
<path fill-rule="evenodd" fill="#0b0b0d" fill-opacity="1" d="M 73.488281 1216.34375 L 59.664062 1216.34375 L 59.664062 1220.265625 L 73.488281 1220.265625 L 73.488281 1216.34375 "/>
<path fill-rule="evenodd" fill="#0b0b0d" fill-opacity="1" d="M 202.328125 1220.265625 L 180.003906 1220.265625 L 180.003906 1225.1875 L 202.328125 1225.1875 L 202.328125 1220.265625 "/>
<path fill-rule="evenodd" fill="#0b0b0d" fill-opacity="1" d="M 199.277344 1216.34375 L 183.058594 1216.34375 L 183.058594 1220.265625 L 199.277344 1220.265625 L 199.277344 1216.34375 "/>
<path fill-rule="evenodd" fill="#0b0b0d" fill-opacity="1" d="M 197.097656 1206.410156 L 185.570312 1206.410156 L 185.570312 1299.054688 L 197.097656 1299.054688 L 197.097656 1206.410156 "/>
<path fill-rule="evenodd" fill="#0b0b0d" fill-opacity="1" d="M 557.457031 1049.625 L 357.726562 1049.625 C 340.878906 1073.410156 302.277344 1088.105469 256.726562 1099.890625 C 256.726562 1099.890625 387.875 1106.449219 457.328125 1096.421875 C 531.957031 1110.175781 654.960938 1104.984375 652.542969 1099.890625 C 612.722656 1092.859375 577 1080.921875 557.457031 1049.625 "/>
<path fill-rule="evenodd" fill="#3d0f08" fill-opacity="1" d="M 652.542969 1099.890625 C 586.328125 1104.1875 520.914062 1103.304688 457.328125 1090.546875 L 457.238281 1090.5625 C 457.144531 1090.578125 457.054688 1090.59375 456.960938 1090.605469 C 391.578125 1100.964844 324.648438 1103.054688 256.726562 1099.890625 L 256.726562 1104.863281 C 324.699219 1108.777344 391.976562 1108.472656 457.328125 1096.421875 C 520.8125 1108.820312 586.070312 1110.503906 652.542969 1104.863281 L 652.542969 1099.890625 "/>
<path fill-rule="evenodd" fill="#3d0f08" fill-opacity="1" d="M 653.375 586.339844 C 587.164062 593.039062 521.746094 591.660156 458.160156 571.78125 L 458.070312 571.808594 C 457.976562 571.828125 457.886719 571.851562 457.792969 571.878906 C 392.410156 588.011719 325.480469 591.269531 257.558594 586.339844 L 257.558594 594.089844 C 325.53125 600.1875 392.808594 599.710938 458.160156 580.941406 C 521.644531 600.257812 586.902344 602.882812 653.375 594.089844 L 653.375 586.339844 "/>
<path fill-rule="evenodd" fill="#3d0f08" fill-opacity="1" d="M 481.921875 484.378906 L 429.011719 484.378906 C 386.269531 527.078125 328.78125 560.859375 257.558594 586.339844 C 257.558594 586.339844 319.875 597.070312 353.308594 595.441406 C 386.742188 593.808594 458.160156 576.578125 458.160156 576.578125 L 557.386719 594.089844 C 589.457031 593.578125 621.429688 590.339844 653.375 586.339844 C 582.371094 559.640625 523.292969 526.671875 481.921875 484.378906 Z M 480.839844 485.71875 C 521.066406 526.578125 577.785156 558.769531 645.816406 585 C 646.476562 586.820312 555.390625 594.730469 554.691406 592.808594 L 458.160156 575.238281 C 458.160156 575.238281 385.433594 588.929688 353.308594 590.558594 C 321.1875 592.191406 265.421875 585 265.421875 585 C 333.429688 559.839844 388.613281 526.929688 430.078125 485.71875 L 480.839844 485.71875 "/>
<path fill-rule="evenodd" fill="#0b0b0d" fill-opacity="1" d="M 558.289062 720.535156 L 358.558594 720.535156 C 341.710938 744.324219 303.109375 759.015625 257.558594 770.800781 C 257.558594 770.800781 388.710938 777.359375 458.160156 767.335938 C 532.789062 781.089844 655.792969 775.898438 653.375 770.800781 C 613.554688 763.773438 577.835938 751.835938 558.289062 720.535156 "/>
<path fill-rule="evenodd" fill="#3d0f08" fill-opacity="1" d="M 653.375 770.800781 C 587.164062 775.101562 521.746094 774.21875 458.160156 761.460938 L 458.070312 761.476562 C 457.976562 761.488281 457.886719 761.503906 457.792969 761.519531 C 392.410156 771.875 325.480469 773.96875 257.558594 770.800781 L 257.558594 775.773438 C 325.53125 779.6875 392.808594 779.386719 458.160156 767.335938 C 521.644531 779.730469 586.902344 781.417969 653.375 775.773438 L 653.375 770.800781 "/>
<path fill-rule="evenodd" fill="#0b0b0d" fill-opacity="1" d="M 558.289062 885.003906 L 358.558594 885.003906 C 341.710938 908.789062 303.109375 923.484375 257.558594 935.269531 C 257.558594 935.269531 388.710938 941.828125 458.160156 931.800781 C 532.789062 945.554688 655.792969 940.363281 653.375 935.269531 C 613.554688 928.238281 577.835938 916.300781 558.289062 885.003906 "/>
<path fill-rule="evenodd" fill="#3d0f08" fill-opacity="1" d="M 653.375 935.269531 C 587.164062 939.566406 521.746094 938.683594 458.160156 925.925781 L 458.070312 925.941406 C 457.976562 925.957031 457.886719 925.972656 457.792969 925.984375 C 392.410156 936.34375 325.480469 938.433594 257.558594 935.269531 L 257.558594 940.242188 C 325.53125 944.15625 392.808594 943.851562 458.160156 931.800781 C 521.644531 944.199219 586.902344 945.882812 653.375 940.242188 L 653.375 935.269531 "/>
<path fill-rule="evenodd" fill="#0b0b0d" fill-opacity="1" d="M 481.9375 485.960938 L 429.03125 485.960938 C 386.285156 528.660156 328.800781 562.441406 257.574219 587.921875 C 322.304688 597.550781 388.726562 598.140625 458.179688 582.511719 C 530.636719 596.828125 595.480469 598.238281 653.390625 587.921875 C 634.667969 580.878906 616.773438 573.398438 599.8125 565.429688 C 552.460938 543.179688 512.402344 517.089844 481.9375 485.960938 "/>
<path fill-rule="evenodd" fill="#0b0b0d" fill-opacity="1" d="M 431.726562 485.960938 L 455.484375 485.960938 L 455.484375 571.359375 C 455.484375 571.359375 268.257812 587.320312 260.238281 571.359375 C 281.71875 571.359375 299.292969 569.449219 316.253906 562.398438 C 363.605469 542.71875 401.261719 513.5 431.726562 485.960938 "/>
<path fill-rule="evenodd" fill="#0b0b0d" fill-opacity="1" d="M 553.785156 1044.675781 L 361.1875 1044.675781 C 344.941406 1064.691406 307.71875 1077.054688 263.792969 1086.972656 C 263.792969 1086.972656 389.355469 1099.910156 456.328125 1091.472656 C 528.292969 1103.046875 639.871094 1094.019531 645.476562 1086.972656 C 607.078125 1081.058594 572.632812 1071.011719 553.785156 1044.675781 "/>
<path fill-rule="evenodd" fill="#0b0b0d" fill-opacity="1" d="M 554.617188 715.589844 L 362.019531 715.589844 C 345.773438 735.605469 308.550781 747.96875 264.625 757.886719 C 264.625 757.886719 390.1875 770.824219 457.160156 762.386719 C 529.125 773.960938 640.703125 764.933594 646.308594 757.886719 C 607.910156 751.96875 573.464844 741.925781 554.617188 715.589844 "/>
<path fill-rule="evenodd" fill="#0b0b0d" fill-opacity="1" d="M 554.617188 880.054688 L 362.019531 880.054688 C 345.773438 900.070312 308.550781 912.433594 264.625 922.351562 C 264.625 922.351562 390.1875 935.289062 457.160156 926.851562 C 529.125 938.425781 640.703125 929.398438 646.308594 922.351562 C 607.910156 916.4375 573.464844 906.390625 554.617188 880.054688 "/>
<path fill-rule="evenodd" fill="#0b0b0d" fill-opacity="1" d="M 304.847656 1103.605469 L 297.851562 1098.640625 L 267.800781 1116.0625 L 274.796875 1121.03125 L 304.847656 1103.605469 "/>
<path fill-rule="evenodd" fill="#0b0b0d" fill-opacity="1" d="M 305.679688 592.128906 L 298.6875 584.390625 L 268.636719 611.542969 L 275.628906 619.285156 L 305.679688 592.128906 "/>
<path fill-rule="evenodd" fill="#0b0b0d" fill-opacity="1" d="M 305.679688 774.519531 L 298.6875 769.550781 L 268.636719 786.976562 L 275.628906 791.941406 L 305.679688 774.519531 "/>
<path fill-rule="evenodd" fill="#0b0b0d" fill-opacity="1" d="M 305.679688 938.984375 L 298.6875 934.019531 L 268.636719 951.441406 L 275.628906 956.410156 L 305.679688 938.984375 "/>
<path fill-rule="evenodd" fill="#0b0b0d" fill-opacity="1" d="M 322.445312 1104.445312 L 314.800781 1099.890625 L 287.246094 1118.9375 L 294.890625 1123.492188 L 322.445312 1104.445312 "/>
<path fill-rule="evenodd" fill="#0b0b0d" fill-opacity="1" d="M 323.277344 593.441406 L 315.632812 586.339844 L 288.078125 616.023438 L 295.722656 623.117188 L 323.277344 593.441406 "/>
<path fill-rule="evenodd" fill="#0b0b0d" fill-opacity="1" d="M 323.277344 775.355469 L 315.632812 770.800781 L 288.078125 789.851562 L 295.722656 794.402344 L 323.277344 775.355469 "/>
<path fill-rule="evenodd" fill="#0b0b0d" fill-opacity="1" d="M 323.277344 939.824219 L 315.632812 935.269531 L 288.078125 954.316406 L 295.722656 958.871094 L 323.277344 939.824219 "/>
<path fill-rule="evenodd" fill="#0b0b0d" fill-opacity="1" d="M 340.09375 1104.289062 L 331.855469 1100.183594 L 307.007812 1120.707031 L 315.246094 1124.8125 L 340.09375 1104.289062 "/>
<path fill-rule="evenodd" fill="#0b0b0d" fill-opacity="1" d="M 340.925781 593.199219 L 332.6875 586.800781 L 307.839844 618.777344 L 316.078125 625.179688 L 340.925781 593.199219 "/>
<path fill-rule="evenodd" fill="#0b0b0d" fill-opacity="1" d="M 340.925781 775.199219 L 332.6875 771.09375 L 307.839844 791.617188 L 316.078125 795.726562 L 340.925781 775.199219 "/>
<path fill-rule="evenodd" fill="#0b0b0d" fill-opacity="1" d="M 340.925781 939.667969 L 332.6875 935.558594 L 307.839844 956.085938 L 316.078125 960.191406 L 340.925781 939.667969 "/>
<path fill-rule="evenodd" fill="#0b0b0d" fill-opacity="1" d="M 590.195312 1169.269531 L 319.109375 1169.269531 L 319.109375 1207.621094 L 590.195312 1207.621094 L 590.195312 1169.269531 "/>
<path fill-rule="evenodd" fill="#3d0f08" fill-opacity="1" d="M 590.195312 1201.933594 L 319.109375 1201.933594 L 319.109375 1207.621094 L 590.195312 1207.621094 L 590.195312 1201.933594 "/>
<path fill-rule="evenodd" fill="#0b0b0d" fill-opacity="1" d="M 591.007812 677.054688 L 319.921875 677.054688 L 319.921875 715.40625 L 591.007812 715.40625 L 591.007812 677.054688 "/>
<path fill-rule="evenodd" fill="#3d0f08" fill-opacity="1" d="M 591.007812 709.722656 L 319.921875 709.722656 L 319.921875 715.40625 L 591.007812 715.40625 L 591.007812 709.722656 "/>
<path fill-rule="evenodd" fill="#0b0b0d" fill-opacity="1" d="M 591.027344 840.179688 L 319.941406 840.179688 L 319.941406 878.53125 L 591.027344 878.53125 L 591.027344 840.179688 "/>
<path fill-rule="evenodd" fill="#3d0f08" fill-opacity="1" d="M 591.027344 872.847656 L 319.941406 872.847656 L 319.941406 878.53125 L 591.027344 878.53125 L 591.027344 872.847656 "/>
<path fill-rule="evenodd" fill="#0b0b0d" fill-opacity="1" d="M 591.027344 1004.648438 L 319.941406 1004.648438 L 319.941406 1043 L 591.027344 1043 L 591.027344 1004.648438 "/>
<path fill-rule="evenodd" fill="#3d0f08" fill-opacity="1" d="M 591.027344 1037.3125 L 319.941406 1037.3125 L 319.941406 1043 L 591.027344 1043 L 591.027344 1037.3125 "/>
<path fill-rule="evenodd" fill="#0b0b0d" fill-opacity="1" d="M 587.746094 1169.613281 L 587.746094 1174.90625 L 321.558594 1174.90625 L 321.558594 1169.613281 L 587.746094 1169.613281 "/>
<path fill-rule="evenodd" fill="#0b0b0d" fill-opacity="1" d="M 588.5625 677.402344 L 588.5625 682.695312 C 588.5625 682.695312 349.257812 682.695312 322.371094 682.695312 L 322.371094 677.402344 L 588.5625 677.402344 "/>
<path fill-rule="evenodd" fill="#0b0b0d" fill-opacity="1" d="M 588.578125 840.527344 L 588.578125 845.820312 L 322.390625 845.820312 L 322.390625 840.527344 L 588.578125 840.527344 "/>
<path fill-rule="evenodd" fill="#0b0b0d" fill-opacity="1" d="M 588.578125 1004.992188 L 588.578125 1010.285156 L 322.390625 1010.285156 L 322.390625 1004.992188 L 588.578125 1004.992188 "/>
<path fill-rule="evenodd" fill="#0b0b0d" fill-opacity="1" d="M 357.652344 1103.140625 L 348.882812 1099.511719 L 326.9375 1121.355469 L 335.703125 1124.984375 L 357.652344 1103.140625 "/>
<path fill-rule="evenodd" fill="#0b0b0d" fill-opacity="1" d="M 330.519531 1160.898438 L 330.519531 1183.621094 L 327.640625 1183.621094 L 327.640625 1160.898438 L 330.519531 1160.898438 "/>
<path fill-rule="evenodd" fill="#0b0b0d" fill-opacity="1" d="M 358.484375 591.410156 L 349.714844 585.761719 L 327.769531 619.792969 L 336.535156 625.445312 L 358.484375 591.410156 "/>
<path fill-rule="evenodd" fill="#0b0b0d" fill-opacity="1" d="M 358.484375 774.054688 L 349.714844 770.425781 L 327.769531 792.269531 L 336.535156 795.894531 L 358.484375 774.054688 "/>
<path fill-rule="evenodd" fill="#0b0b0d" fill-opacity="1" d="M 358.484375 938.519531 L 349.714844 934.890625 L 327.769531 956.734375 L 336.535156 960.363281 L 358.484375 938.519531 "/>
<path fill-rule="evenodd" fill="#0b0b0d" fill-opacity="1" d="M 331.335938 668.683594 L 331.335938 691.410156 L 328.453125 691.410156 L 328.453125 668.683594 L 331.335938 668.683594 "/>
<path fill-rule="evenodd" fill="#0b0b0d" fill-opacity="1" d="M 331.351562 831.8125 L 331.351562 854.535156 L 328.472656 854.535156 L 328.472656 831.8125 L 331.351562 831.8125 "/>
<path fill-rule="evenodd" fill="#0b0b0d" fill-opacity="1" d="M 331.351562 996.277344 L 331.351562 1019 L 328.472656 1019 L 328.472656 996.277344 L 331.351562 996.277344 "/>
<path fill-rule="evenodd" fill="#3d0f08" fill-opacity="1" d="M 341.886719 1189.117188 L 330.5 1189.117188 L 330.5 1199.867188 L 341.886719 1199.867188 L 341.886719 1189.117188 "/>
<path fill-rule="evenodd" fill="#3d0f08" fill-opacity="1" d="M 342.699219 696.902344 L 331.3125 696.902344 L 331.3125 707.652344 L 342.699219 707.652344 L 342.699219 696.902344 "/>
<path fill-rule="evenodd" fill="#3d0f08" fill-opacity="1" d="M 342.71875 860.03125 L 331.332031 860.03125 L 331.332031 870.777344 L 342.71875 870.777344 L 342.71875 860.03125 "/>
<path fill-rule="evenodd" fill="#3d0f08" fill-opacity="1" d="M 342.71875 1024.496094 L 331.332031 1024.496094 L 331.332031 1035.246094 L 342.71875 1035.246094 L 342.71875 1024.496094 "/>
<path fill-rule="evenodd" fill="#0b0b0d" fill-opacity="1" d="M 354.0625 1219.285156 L 331.738281 1219.285156 L 331.738281 1224.210938 L 354.0625 1224.210938 L 354.0625 1219.285156 "/>
<path fill-rule="evenodd" fill="#0b0b0d" fill-opacity="1" d="M 351.011719 1215.363281 L 334.789062 1215.363281 L 334.789062 1219.285156 L 351.011719 1219.285156 L 351.011719 1215.363281 "/>
<path fill-rule="evenodd" fill="#0b0b0d" fill-opacity="1" d="M 348.832031 1205.429688 L 337.304688 1205.429688 L 337.304688 1298.074219 L 348.832031 1298.074219 L 348.832031 1205.429688 "/>
<path fill-rule="evenodd" fill="#0b0b0d" fill-opacity="1" d="M 345.191406 1160.628906 L 345.191406 1183.351562 L 342.3125 1183.351562 L 342.3125 1160.628906 L 345.191406 1160.628906 "/>
<path fill-rule="evenodd" fill="#0b0b0d" fill-opacity="1" d="M 346.007812 668.414062 L 346.007812 691.136719 L 343.125 691.136719 L 343.125 668.414062 L 346.007812 668.414062 "/>
<path fill-rule="evenodd" fill="#0b0b0d" fill-opacity="1" d="M 346.023438 831.539062 L 346.023438 854.261719 L 343.144531 854.261719 L 343.144531 831.539062 L 346.023438 831.539062 "/>
<path fill-rule="evenodd" fill="#0b0b0d" fill-opacity="1" d="M 346.023438 996.003906 L 346.023438 1018.730469 L 343.144531 1018.730469 L 343.144531 996.003906 L 346.023438 996.003906 "/>
<path fill-rule="evenodd" fill="#0b0b0d" fill-opacity="1" d="M 374.984375 1101.011719 L 365.753906 1097.890625 L 346.875 1120.882812 L 356.101562 1124.003906 L 374.984375 1101.011719 "/>
<path fill-rule="evenodd" fill="#0b0b0d" fill-opacity="1" d="M 375.816406 588.089844 L 366.589844 583.21875 L 347.707031 619.054688 L 356.9375 623.917969 L 375.816406 588.089844 "/>
<path fill-rule="evenodd" fill="#0b0b0d" fill-opacity="1" d="M 375.816406 771.921875 L 366.589844 768.804688 L 347.707031 791.796875 L 356.9375 794.914062 L 375.816406 771.921875 "/>
<path fill-rule="evenodd" fill="#0b0b0d" fill-opacity="1" d="M 375.816406 936.390625 L 366.589844 933.269531 L 347.707031 956.261719 L 356.9375 959.382812 L 375.816406 936.390625 "/>
<path fill-rule="evenodd" fill="#0b0b0d" fill-opacity="1" d="M 558.273438 1094.675781 L 355.585938 1094.675781 L 355.585938 1109.261719 C 389.671875 1119.976562 424.285156 1104.308594 457.050781 1104.289062 C 491.933594 1104.265625 528.570312 1119.136719 558.273438 1109.261719 L 558.273438 1094.675781 "/>
<path fill-rule="evenodd" fill="#0b0b0d" fill-opacity="1" d="M 559.105469 578.21875 L 356.417969 578.21875 L 356.417969 600.945312 C 390.503906 617.640625 425.117188 593.230469 457.886719 593.199219 C 492.765625 593.160156 529.402344 616.335938 559.105469 600.945312 L 559.105469 578.21875 "/>
<path fill-rule="evenodd" fill="#0b0b0d" fill-opacity="1" d="M 559.105469 765.589844 L 356.417969 765.589844 L 356.417969 780.175781 C 390.503906 790.890625 425.117188 775.222656 457.886719 775.199219 C 492.765625 775.179688 529.402344 790.050781 559.105469 780.175781 L 559.105469 765.589844 "/>
<path fill-rule="evenodd" fill="#0b0b0d" fill-opacity="1" d="M 559.105469 930.054688 L 356.417969 930.054688 L 356.417969 944.640625 C 390.503906 955.355469 425.117188 939.6875 457.886719 939.667969 C 492.765625 939.644531 529.402344 954.515625 559.105469 944.640625 L 559.105469 930.054688 "/>
<path fill-rule="evenodd" fill="#0b0b0d" fill-opacity="1" d="M 359.605469 1160.460938 L 359.605469 1183.183594 L 356.726562 1183.183594 L 356.726562 1160.460938 L 359.605469 1160.460938 "/>
<path fill-rule="evenodd" fill="#0b0b0d" fill-opacity="1" d="M 360.421875 668.246094 L 360.421875 690.96875 L 357.539062 690.96875 L 357.539062 668.246094 L 360.421875 668.246094 "/>
<path fill-rule="evenodd" fill="#0b0b0d" fill-opacity="1" d="M 360.4375 831.371094 L 360.4375 854.09375 L 357.558594 854.09375 L 357.558594 831.371094 L 360.4375 831.371094 "/>
<path fill-rule="evenodd" fill="#0b0b0d" fill-opacity="1" d="M 360.4375 995.839844 L 360.4375 1018.5625 L 357.558594 1018.5625 L 357.558594 995.839844 L 360.4375 995.839844 "/>
<path fill-rule="evenodd" fill="#0b0b0d" fill-opacity="1" d="M 557.457031 1044.492188 L 357.726562 1044.492188 L 357.726562 1050.179688 L 557.457031 1050.179688 L 557.457031 1044.492188 "/>
<path fill-rule="evenodd" fill="#0b0b0d" fill-opacity="1" d="M 558.273438 1043.15625 L 358.546875 1043.15625 L 358.546875 1048.839844 L 558.273438 1048.839844 L 558.273438 1043.15625 "/>
<path fill-rule="evenodd" fill="#0b0b0d" fill-opacity="1" d="M 558.273438 1207.621094 L 358.546875 1207.621094 L 358.546875 1213.308594 L 558.273438 1213.308594 L 558.273438 1207.621094 "/>
<path fill-rule="evenodd" fill="#0b0b0d" fill-opacity="1" d="M 558.289062 715.40625 L 358.558594 715.40625 L 358.558594 721.09375 L 558.289062 721.09375 L 558.289062 715.40625 "/>
<path fill-rule="evenodd" fill="#0b0b0d" fill-opacity="1" d="M 558.289062 879.871094 L 358.558594 879.871094 L 358.558594 885.558594 L 558.289062 885.558594 L 558.289062 879.871094 "/>
<path fill-rule="evenodd" fill="#3d0f08" fill-opacity="1" d="M 557.5 564.339844 L 359.230469 564.339844 L 359.230469 1300.265625 L 557.5 1300.265625 L 557.5 564.339844 "/>
<path fill-rule="evenodd" fill="#0b0b0d" fill-opacity="1" d="M 559.105469 878.53125 L 359.378906 878.53125 L 359.378906 884.21875 L 559.105469 884.21875 L 559.105469 878.53125 "/>
<path fill-rule="evenodd" fill="#0b0b0d" fill-opacity="1" d="M 559.105469 1043 L 359.378906 1043 L 359.378906 1048.6875 L 559.105469 1048.6875 L 559.105469 1043 "/>
<path fill-rule="evenodd" fill="#3d0f08" fill-opacity="1" d="M 375.863281 1189.117188 L 364.476562 1189.117188 L 364.476562 1199.867188 L 375.863281 1199.867188 L 375.863281 1189.117188 "/>
<path fill-rule="evenodd" fill="#3d0f08" fill-opacity="1" d="M 376.679688 696.902344 L 365.292969 696.902344 L 365.292969 707.652344 L 376.679688 707.652344 L 376.679688 696.902344 "/>
<path fill-rule="evenodd" fill="#3d0f08" fill-opacity="1" d="M 376.695312 860.03125 L 365.308594 860.03125 L 365.308594 870.777344 L 376.695312 870.777344 L 376.695312 860.03125 "/>
<path fill-rule="evenodd" fill="#3d0f08" fill-opacity="1" d="M 376.695312 1024.496094 L 365.308594 1024.496094 L 365.308594 1035.246094 L 376.695312 1035.246094 L 376.695312 1024.496094 "/>
<path fill-rule="evenodd" fill="#0b0b0d" fill-opacity="1" d="M 390.632812 1101.015625 L 381.015625 1098.425781 L 365.347656 1122.394531 L 374.96875 1124.984375 L 390.632812 1101.015625 "/>
<path fill-rule="evenodd" fill="#0b0b0d" fill-opacity="1" d="M 391.464844 588.101562 L 381.847656 584.058594 L 366.179688 621.410156 L 375.800781 625.445312 L 391.464844 588.101562 "/>
<path fill-rule="evenodd" fill="#0b0b0d" fill-opacity="1" d="M 391.464844 771.929688 L 381.847656 769.339844 L 366.179688 793.308594 L 375.800781 795.894531 L 391.464844 771.929688 "/>
<path fill-rule="evenodd" fill="#0b0b0d" fill-opacity="1" d="M 391.464844 936.394531 L 381.847656 933.804688 L 366.179688 957.773438 L 375.800781 960.363281 L 391.464844 936.394531 "/>
<path fill-rule="evenodd" fill="#0b0b0d" fill-opacity="1" d="M 424.957031 1176.730469 L 366.4375 1176.730469 L 366.4375 1189.582031 L 424.957031 1189.582031 L 424.957031 1176.730469 "/>
<path fill-rule="evenodd" fill="#0b0b0d" fill-opacity="1" d="M 425.136719 671.035156 L 366.613281 671.035156 L 366.613281 683.882812 L 425.136719 683.882812 L 425.136719 671.035156 "/>
<path fill-rule="evenodd" fill="#0b0b0d" fill-opacity="1" d="M 425.460938 1150.269531 L 366.9375 1150.269531 L 366.9375 1173.355469 L 425.460938 1173.355469 L 425.460938 1150.269531 "/>
<path fill-rule="evenodd" fill="#0b0b0d" fill-opacity="1" d="M 425.578125 1131.9375 L 367.058594 1131.9375 L 367.058594 1144.785156 L 425.578125 1144.785156 L 425.578125 1131.9375 "/>
<path fill-rule="evenodd" fill="#0b0b0d" fill-opacity="1" d="M 425.640625 644.570312 L 367.117188 644.570312 L 367.117188 667.65625 L 425.640625 667.65625 L 425.640625 644.570312 "/>
<path fill-rule="evenodd" fill="#0b0b0d" fill-opacity="1" d="M 425.757812 626.238281 L 367.234375 626.238281 L 367.234375 639.089844 L 425.757812 639.089844 L 425.757812 626.238281 "/>
<path fill-rule="evenodd" fill="#0b0b0d" fill-opacity="1" d="M 425.789062 847.644531 L 367.269531 847.644531 L 367.269531 860.492188 L 425.789062 860.492188 L 425.789062 847.644531 "/>
<path fill-rule="evenodd" fill="#0b0b0d" fill-opacity="1" d="M 425.789062 1012.109375 L 367.269531 1012.109375 L 367.269531 1024.960938 L 425.789062 1024.960938 L 425.789062 1012.109375 "/>
<path fill-rule="evenodd" fill="#0b0b0d" fill-opacity="1" d="M 426.292969 821.179688 L 367.769531 821.179688 L 367.769531 844.265625 L 426.292969 844.265625 L 426.292969 821.179688 "/>
<path fill-rule="evenodd" fill="#0b0b0d" fill-opacity="1" d="M 426.292969 985.644531 L 367.769531 985.644531 L 367.769531 1008.734375 L 426.292969 1008.734375 L 426.292969 985.644531 "/>
<path fill-rule="evenodd" fill="#0b0b0d" fill-opacity="1" d="M 426.410156 802.851562 L 367.890625 802.851562 L 367.890625 815.699219 L 426.410156 815.699219 L 426.410156 802.851562 "/>
<path fill-rule="evenodd" fill="#0b0b0d" fill-opacity="1" d="M 426.410156 967.316406 L 367.890625 967.316406 L 367.890625 980.164062 L 426.410156 980.164062 L 426.410156 967.316406 "/>
<path fill-rule="evenodd" fill="#3d0f08" fill-opacity="1" d="M 423.320312 1177.589844 L 368.074219 1177.589844 L 368.074219 1188.722656 L 423.320312 1188.722656 L 423.320312 1177.589844 "/>
<path fill-rule="evenodd" fill="#3d0f08" fill-opacity="1" d="M 423.5 671.890625 L 368.253906 671.890625 L 368.253906 683.027344 L 423.5 683.027344 L 423.5 671.890625 "/>
<path fill-rule="evenodd" fill="#3d0f08" fill-opacity="1" d="M 423.824219 1151.808594 L 368.574219 1151.808594 L 368.574219 1171.8125 L 423.824219 1171.8125 L 423.824219 1151.808594 "/>
<path fill-rule="evenodd" fill="#3d0f08" fill-opacity="1" d="M 423.941406 1132.792969 L 368.695312 1132.792969 L 368.695312 1143.929688 L 423.941406 1143.929688 L 423.941406 1132.792969 "/>
<path fill-rule="evenodd" fill="#3d0f08" fill-opacity="1" d="M 424.003906 646.109375 L 368.753906 646.109375 L 368.753906 666.117188 L 424.003906 666.117188 L 424.003906 646.109375 "/>
<path fill-rule="evenodd" fill="#3d0f08" fill-opacity="1" d="M 424.121094 627.097656 L 368.871094 627.097656 L 368.871094 638.230469 L 424.121094 638.230469 L 424.121094 627.097656 "/>
<path fill-rule="evenodd" fill="#3d0f08" fill-opacity="1" d="M 424.152344 848.503906 L 368.90625 848.503906 L 368.90625 859.636719 L 424.152344 859.636719 L 424.152344 848.503906 "/>
<path fill-rule="evenodd" fill="#3d0f08" fill-opacity="1" d="M 424.152344 1012.96875 L 368.90625 1012.96875 L 368.90625 1024.101562 L 424.152344 1024.101562 L 424.152344 1012.96875 "/>
<path fill-rule="evenodd" fill="#3d0f08" fill-opacity="1" d="M 424.65625 822.71875 L 369.40625 822.71875 L 369.40625 842.726562 L 424.65625 842.726562 L 424.65625 822.71875 "/>
<path fill-rule="evenodd" fill="#3d0f08" fill-opacity="1" d="M 424.65625 987.1875 L 369.40625 987.1875 L 369.40625 1007.191406 L 424.65625 1007.191406 L 424.65625 987.1875 "/>
<path fill-rule="evenodd" fill="#3d0f08" fill-opacity="1" d="M 424.773438 803.707031 L 369.527344 803.707031 L 369.527344 814.84375 L 424.773438 814.84375 L 424.773438 803.707031 "/>
<path fill-rule="evenodd" fill="#3d0f08" fill-opacity="1" d="M 424.773438 968.171875 L 369.527344 968.171875 L 369.527344 979.308594 L 424.773438 979.308594 L 424.773438 968.171875 "/>
<path fill-rule="evenodd" fill="#0b0b0d" fill-opacity="1" d="M 374.703125 1160.460938 L 374.703125 1183.183594 L 371.824219 1183.183594 L 371.824219 1160.460938 L 374.703125 1160.460938 "/>
<path fill-rule="evenodd" fill="#0b0b0d" fill-opacity="1" d="M 375.519531 668.246094 L 375.519531 690.96875 L 372.640625 690.96875 L 372.640625 668.246094 L 375.519531 668.246094 "/>
<path fill-rule="evenodd" fill="#0b0b0d" fill-opacity="1" d="M 375.535156 831.371094 L 375.535156 854.09375 L 372.65625 854.09375 L 372.65625 831.371094 L 375.535156 831.371094 "/>
<path fill-rule="evenodd" fill="#0b0b0d" fill-opacity="1" d="M 375.535156 995.839844 L 375.535156 1018.5625 L 372.65625 1018.5625 L 372.65625 995.839844 L 375.535156 995.839844 "/>
<path fill-rule="evenodd" fill="#0b0b0d" fill-opacity="1" d="M 405.710938 1099.246094 L 395.777344 1097.210938 L 383.441406 1121.964844 L 393.378906 1124.003906 L 405.710938 1099.246094 "/>
<path fill-rule="evenodd" fill="#0b0b0d" fill-opacity="1" d="M 406.542969 585.339844 L 396.609375 582.160156 L 384.277344 620.742188 L 394.210938 623.917969 L 406.542969 585.339844 "/>
<path fill-rule="evenodd" fill="#0b0b0d" fill-opacity="1" d="M 406.542969 770.160156 L 396.609375 768.121094 L 384.277344 792.878906 L 394.210938 794.914062 L 406.542969 770.160156 "/>
<path fill-rule="evenodd" fill="#0b0b0d" fill-opacity="1" d="M 406.542969 934.625 L 396.609375 932.589844 L 384.277344 957.34375 L 394.210938 959.382812 L 406.542969 934.625 "/>
<path fill-rule="evenodd" fill="#0b0b0d" fill-opacity="1" d="M 389.121094 1160.460938 L 389.121094 1183.183594 L 386.242188 1183.183594 L 386.242188 1160.460938 L 389.121094 1160.460938 "/>
<path fill-rule="evenodd" fill="#0b0b0d" fill-opacity="1" d="M 389.9375 668.246094 L 389.9375 690.96875 L 387.054688 690.96875 L 387.054688 668.246094 L 389.9375 668.246094 "/>
<path fill-rule="evenodd" fill="#0b0b0d" fill-opacity="1" d="M 389.953125 831.371094 L 389.953125 854.09375 L 387.074219 854.09375 L 387.074219 831.371094 L 389.953125 831.371094 "/>
<path fill-rule="evenodd" fill="#0b0b0d" fill-opacity="1" d="M 389.953125 995.839844 L 389.953125 1018.5625 L 387.074219 1018.5625 L 387.074219 995.839844 L 389.953125 995.839844 "/>
<path fill-rule="evenodd" fill="#3d0f08" fill-opacity="1" d="M 409.84375 1189.117188 L 398.453125 1189.117188 L 398.453125 1199.867188 L 409.84375 1199.867188 L 409.84375 1189.117188 "/>
<path fill-rule="evenodd" fill="#3d0f08" fill-opacity="1" d="M 410.65625 696.902344 L 399.269531 696.902344 L 399.269531 707.652344 L 410.65625 707.652344 L 410.65625 696.902344 "/>
<path fill-rule="evenodd" fill="#3d0f08" fill-opacity="1" d="M 410.675781 860.03125 L 399.289062 860.03125 L 399.289062 870.777344 L 410.675781 870.777344 L 410.675781 860.03125 "/>
<path fill-rule="evenodd" fill="#3d0f08" fill-opacity="1" d="M 410.675781 1024.496094 L 399.289062 1024.496094 L 399.289062 1035.246094 L 410.675781 1035.246094 L 410.675781 1024.496094 "/>
<path fill-rule="evenodd" fill="#0b0b0d" fill-opacity="1" d="M 403.835938 1160.460938 L 403.835938 1183.183594 L 400.953125 1183.183594 L 400.953125 1160.460938 L 403.835938 1160.460938 "/>
<path fill-rule="evenodd" fill="#0b0b0d" fill-opacity="1" d="M 420.777344 1097.894531 L 410.601562 1096.421875 L 401.699219 1121.777344 L 411.875 1123.246094 L 420.777344 1097.894531 "/>
<path fill-rule="evenodd" fill="#0b0b0d" fill-opacity="1" d="M 404.648438 668.246094 L 404.648438 690.96875 L 401.769531 690.96875 L 401.769531 668.246094 L 404.648438 668.246094 "/>
<path fill-rule="evenodd" fill="#0b0b0d" fill-opacity="1" d="M 404.667969 831.371094 L 404.667969 854.09375 L 401.785156 854.09375 L 401.785156 831.371094 L 404.667969 831.371094 "/>
<path fill-rule="evenodd" fill="#0b0b0d" fill-opacity="1" d="M 404.667969 995.839844 L 404.667969 1018.5625 L 401.785156 1018.5625 L 401.785156 995.839844 L 404.667969 995.839844 "/>
<path fill-rule="evenodd" fill="#0b0b0d" fill-opacity="1" d="M 421.609375 583.230469 L 411.433594 580.941406 L 402.53125 620.445312 L 412.707031 622.738281 L 421.609375 583.230469 "/>
<path fill-rule="evenodd" fill="#0b0b0d" fill-opacity="1" d="M 421.609375 768.804688 L 411.433594 767.335938 L 402.53125 792.6875 L 412.707031 794.160156 L 421.609375 768.804688 "/>
<path fill-rule="evenodd" fill="#0b0b0d" fill-opacity="1" d="M 421.609375 933.273438 L 411.433594 931.800781 L 402.53125 957.15625 L 412.707031 958.625 L 421.609375 933.273438 "/>
<path fill-rule="evenodd" fill="#0b0b0d" fill-opacity="1" d="M 418.996094 1160.460938 L 418.996094 1183.183594 L 416.117188 1183.183594 L 416.117188 1160.460938 L 418.996094 1160.460938 "/>
<path fill-rule="evenodd" fill="#0b0b0d" fill-opacity="1" d="M 419.8125 668.246094 L 419.8125 690.96875 L 416.929688 690.96875 L 416.929688 668.246094 L 419.8125 668.246094 "/>
<path fill-rule="evenodd" fill="#0b0b0d" fill-opacity="1" d="M 419.828125 831.371094 L 419.828125 854.09375 L 416.949219 854.09375 L 416.949219 831.371094 L 419.828125 831.371094 "/>
<path fill-rule="evenodd" fill="#0b0b0d" fill-opacity="1" d="M 419.828125 995.839844 L 419.828125 1018.5625 L 416.949219 1018.5625 L 416.949219 995.839844 L 419.828125 995.839844 "/>
<path fill-rule="evenodd" fill="#0b0b0d" fill-opacity="1" d="M 437.992188 1098.105469 L 427.640625 1097.28125 L 422.644531 1123.074219 L 432.996094 1123.898438 L 437.992188 1098.105469 "/>
<path fill-rule="evenodd" fill="#0b0b0d" fill-opacity="1" d="M 438.824219 583.558594 L 428.472656 582.28125 L 423.476562 622.46875 L 433.828125 623.753906 L 438.824219 583.558594 "/>
<path fill-rule="evenodd" fill="#0b0b0d" fill-opacity="1" d="M 438.824219 769.019531 L 428.472656 768.195312 L 423.476562 793.984375 L 433.828125 794.8125 L 438.824219 769.019531 "/>
<path fill-rule="evenodd" fill="#0b0b0d" fill-opacity="1" d="M 438.824219 933.484375 L 428.472656 932.660156 L 423.476562 958.453125 L 433.828125 959.277344 L 438.824219 933.484375 "/>
<path fill-rule="evenodd" fill="#3d0f08" fill-opacity="1" d="M 481.890625 477.070312 L 429.042969 477.070312 L 429.042969 484.378906 L 481.890625 484.378906 L 481.890625 477.070312 "/>
<path fill-rule="evenodd" fill="#0b0b0d" fill-opacity="1" d="M 488.878906 1176.730469 L 430.355469 1176.730469 L 430.355469 1189.582031 L 488.878906 1189.582031 L 488.878906 1176.730469 "/>
<path fill-rule="evenodd" fill="#0b0b0d" fill-opacity="1" d="M 433.25 1160.460938 L 433.25 1183.183594 L 430.371094 1183.183594 L 430.371094 1160.460938 L 433.25 1160.460938 "/>
<path fill-rule="evenodd" fill="#0b0b0d" fill-opacity="1" d="M 489.058594 671.035156 L 430.535156 671.035156 L 430.535156 683.882812 L 489.058594 683.882812 L 489.058594 671.035156 "/>
<path fill-rule="evenodd" fill="#0b0b0d" fill-opacity="1" d="M 489.382812 1150.269531 L 430.859375 1150.269531 L 430.859375 1173.355469 L 489.382812 1173.355469 L 489.382812 1150.269531 "/>
<path fill-rule="evenodd" fill="#0b0b0d" fill-opacity="1" d="M 489.5 1131.9375 L 430.976562 1131.9375 L 430.976562 1144.785156 L 489.5 1144.785156 L 489.5 1131.9375 "/>
<path fill-rule="evenodd" fill="#0b0b0d" fill-opacity="1" d="M 489.558594 644.570312 L 431.039062 644.570312 L 431.039062 667.65625 L 489.558594 667.65625 L 489.558594 644.570312 "/>
<path fill-rule="evenodd" fill="#0b0b0d" fill-opacity="1" d="M 489.679688 626.238281 L 431.15625 626.238281 L 431.15625 639.089844 L 489.679688 639.089844 L 489.679688 626.238281 "/>
<path fill-rule="evenodd" fill="#0b0b0d" fill-opacity="1" d="M 434.066406 668.246094 L 434.066406 690.96875 L 431.183594 690.96875 L 431.183594 668.246094 L 434.066406 668.246094 "/>
<path fill-rule="evenodd" fill="#0b0b0d" fill-opacity="1" d="M 489.710938 847.644531 L 431.1875 847.644531 L 431.1875 860.492188 L 489.710938 860.492188 L 489.710938 847.644531 "/>
<path fill-rule="evenodd" fill="#0b0b0d" fill-opacity="1" d="M 489.710938 1012.109375 L 431.1875 1012.109375 L 431.1875 1024.960938 L 489.710938 1024.960938 L 489.710938 1012.109375 "/>
<path fill-rule="evenodd" fill="#0b0b0d" fill-opacity="1" d="M 434.082031 831.371094 L 434.082031 854.09375 L 431.203125 854.09375 L 431.203125 831.371094 L 434.082031 831.371094 "/>
<path fill-rule="evenodd" fill="#0b0b0d" fill-opacity="1" d="M 434.082031 995.839844 L 434.082031 1018.5625 L 431.203125 1018.5625 L 431.203125 995.839844 L 434.082031 995.839844 "/>
<path fill-rule="evenodd" fill="#0b0b0d" fill-opacity="1" d="M 490.214844 821.179688 L 431.691406 821.179688 L 431.691406 844.265625 L 490.214844 844.265625 L 490.214844 821.179688 "/>
<path fill-rule="evenodd" fill="#0b0b0d" fill-opacity="1" d="M 490.214844 985.644531 L 431.691406 985.644531 L 431.691406 1008.734375 L 490.214844 1008.734375 L 490.214844 985.644531 "/>
<path fill-rule="evenodd" fill="#0b0b0d" fill-opacity="1" d="M 490.332031 802.851562 L 431.808594 802.851562 L 431.808594 815.699219 L 490.332031 815.699219 L 490.332031 802.851562 "/>
<path fill-rule="evenodd" fill="#0b0b0d" fill-opacity="1" d="M 490.332031 967.316406 L 431.808594 967.316406 L 431.808594 980.164062 L 490.332031 980.164062 L 490.332031 967.316406 "/>
<path fill-rule="evenodd" fill="#3d0f08" fill-opacity="1" d="M 487.242188 1177.589844 L 431.992188 1177.589844 L 431.992188 1188.722656 L 487.242188 1188.722656 L 487.242188 1177.589844 "/>
<path fill-rule="evenodd" fill="#3d0f08" fill-opacity="1" d="M 487.421875 671.890625 L 432.171875 671.890625 L 432.171875 683.027344 L 487.421875 683.027344 L 487.421875 671.890625 "/>
<path fill-rule="evenodd" fill="#3d0f08" fill-opacity="1" d="M 443.820312 1189.117188 L 432.433594 1189.117188 L 432.433594 1199.867188 L 443.820312 1199.867188 L 443.820312 1189.117188 "/>
<path fill-rule="evenodd" fill="#3d0f08" fill-opacity="1" d="M 487.742188 1151.808594 L 432.496094 1151.808594 L 432.496094 1171.8125 L 487.742188 1171.8125 L 487.742188 1151.808594 "/>
<path fill-rule="evenodd" fill="#3d0f08" fill-opacity="1" d="M 487.863281 1132.792969 L 432.613281 1132.792969 L 432.613281 1143.929688 L 487.863281 1143.929688 L 487.863281 1132.792969 "/>
<path fill-rule="evenodd" fill="#3d0f08" fill-opacity="1" d="M 487.921875 646.109375 L 432.675781 646.109375 L 432.675781 666.117188 L 487.921875 666.117188 L 487.921875 646.109375 "/>
<path fill-rule="evenodd" fill="#3d0f08" fill-opacity="1" d="M 488.039062 627.097656 L 432.792969 627.097656 L 432.792969 638.230469 L 488.039062 638.230469 L 488.039062 627.097656 "/>
<path fill-rule="evenodd" fill="#3d0f08" fill-opacity="1" d="M 488.074219 848.503906 L 432.824219 848.503906 L 432.824219 859.636719 L 488.074219 859.636719 L 488.074219 848.503906 "/>
<path fill-rule="evenodd" fill="#3d0f08" fill-opacity="1" d="M 488.074219 1012.96875 L 432.824219 1012.96875 L 432.824219 1024.101562 L 488.074219 1024.101562 L 488.074219 1012.96875 "/>
<path fill-rule="evenodd" fill="#3d0f08" fill-opacity="1" d="M 444.636719 696.902344 L 433.246094 696.902344 L 433.246094 707.652344 L 444.636719 707.652344 L 444.636719 696.902344 "/>
<path fill-rule="evenodd" fill="#3d0f08" fill-opacity="1" d="M 444.652344 860.03125 L 433.265625 860.03125 L 433.265625 870.777344 L 444.652344 870.777344 L 444.652344 860.03125 "/>
<path fill-rule="evenodd" fill="#3d0f08" fill-opacity="1" d="M 444.652344 1024.496094 L 433.265625 1024.496094 L 433.265625 1035.246094 L 444.652344 1035.246094 L 444.652344 1024.496094 "/>
<path fill-rule="evenodd" fill="#3d0f08" fill-opacity="1" d="M 488.574219 822.71875 L 433.328125 822.71875 L 433.328125 842.726562 L 488.574219 842.726562 L 488.574219 822.71875 "/>
<path fill-rule="evenodd" fill="#3d0f08" fill-opacity="1" d="M 488.574219 987.1875 L 433.328125 987.1875 L 433.328125 1007.191406 L 488.574219 1007.191406 L 488.574219 987.1875 "/>
<path fill-rule="evenodd" fill="#3d0f08" fill-opacity="1" d="M 488.695312 803.707031 L 433.445312 803.707031 L 433.445312 814.84375 L 488.695312 814.84375 L 488.695312 803.707031 "/>
<path fill-rule="evenodd" fill="#3d0f08" fill-opacity="1" d="M 488.695312 968.171875 L 433.445312 968.171875 L 433.445312 979.308594 L 488.695312 979.308594 L 488.695312 968.171875 "/>
<path fill-rule="evenodd" fill="#3d0f08" fill-opacity="1" d="M 476.261719 471.210938 L 434.671875 471.210938 L 434.671875 478.519531 L 476.261719 478.519531 L 476.261719 471.210938 "/>
<path fill-rule="evenodd" fill="#3d0f08" fill-opacity="1" d="M 471.832031 463.550781 C 471.832031 454.96875 464.878906 448.011719 456.300781 448.011719 C 455.746094 448.011719 455.1875 448.011719 454.632812 448.011719 C 446.054688 448.011719 439.097656 454.96875 439.097656 463.550781 C 439.097656 468.46875 439.097656 472.671875 439.097656 472.671875 L 471.832031 472.671875 C 471.832031 472.671875 471.832031 468.46875 471.832031 463.550781 "/>
<path fill-rule="evenodd" fill="#0b0b0d" fill-opacity="1" d="M 455.15625 1097.238281 L 444.726562 1097.066406 L 443.6875 1123.050781 L 454.117188 1123.222656 L 455.15625 1097.238281 "/>
<path fill-rule="evenodd" fill="#0b0b0d" fill-opacity="1" d="M 455.988281 582.210938 L 445.558594 581.941406 L 444.519531 622.429688 L 454.949219 622.699219 L 455.988281 582.210938 "/>
<path fill-rule="evenodd" fill="#0b0b0d" fill-opacity="1" d="M 455.988281 768.152344 L 445.558594 767.980469 L 444.519531 793.960938 L 454.949219 794.132812 L 455.988281 768.152344 "/>
<path fill-rule="evenodd" fill="#0b0b0d" fill-opacity="1" d="M 455.988281 932.617188 L 445.558594 932.445312 L 444.519531 958.429688 L 454.949219 958.601562 L 455.988281 932.617188 "/>
<path fill-rule="evenodd" fill="#3d0f08" fill-opacity="1" d="M 444.554688 418.601562 C 444.554688 428.179688 449.441406 435.949219 455.464844 435.949219 C 461.492188 435.949219 466.378906 428.179688 466.378906 418.601562 L 444.554688 418.601562 "/>
<path fill-rule="evenodd" fill="#3d0f08" fill-opacity="1" d="M 444.554688 221.589844 C 444.554688 231.171875 449.441406 238.941406 455.464844 238.941406 C 461.492188 238.941406 466.378906 231.171875 466.378906 221.589844 L 444.554688 221.589844 "/>
<path fill-rule="evenodd" fill="#3d0f08" fill-opacity="1" d="M 444.554688 394.859375 C 444.554688 391.171875 449.441406 388.171875 455.464844 388.171875 C 461.492188 388.171875 466.378906 391.171875 466.378906 394.859375 L 444.554688 394.859375 "/>
<path fill-rule="evenodd" fill="#3d0f08" fill-opacity="1" d="M 444.554688 382.769531 C 444.554688 379.070312 449.441406 376.078125 455.464844 376.078125 C 461.492188 376.078125 466.378906 379.070312 466.378906 382.769531 L 444.554688 382.769531 "/>
<path fill-rule="evenodd" fill="#3d0f08" fill-opacity="1" d="M 444.554688 370.109375 C 444.554688 366.421875 449.441406 363.421875 455.464844 363.421875 C 461.492188 363.421875 466.378906 366.421875 466.378906 370.109375 L 444.554688 370.109375 "/>
<path fill-rule="evenodd" fill="#3d0f08" fill-opacity="1" d="M 444.554688 355.691406 C 444.554688 351.988281 449.441406 349 455.464844 349 C 461.492188 349 466.378906 351.988281 466.378906 355.691406 L 444.554688 355.691406 "/>
<path fill-rule="evenodd" fill="#3d0f08" fill-opacity="1" d="M 444.554688 339.980469 C 444.554688 336.289062 449.441406 333.300781 455.464844 333.300781 C 461.492188 333.300781 466.378906 336.289062 466.378906 339.980469 L 444.554688 339.980469 "/>
<path fill-rule="evenodd" fill="#3d0f08" fill-opacity="1" d="M 444.554688 323.808594 C 444.554688 320.109375 449.441406 317.121094 455.464844 317.121094 C 461.492188 317.121094 466.378906 320.109375 466.378906 323.808594 L 444.554688 323.808594 "/>
<path fill-rule="evenodd" fill="#0b0b0d" fill-opacity="1" d="M 447.976562 1160.460938 L 447.976562 1183.183594 L 445.097656 1183.183594 L 445.097656 1160.460938 L 447.976562 1160.460938 "/>
<path fill-rule="evenodd" fill="#0b0b0d" fill-opacity="1" d="M 448.789062 668.246094 L 448.789062 690.96875 L 445.910156 690.96875 L 445.910156 668.246094 L 448.789062 668.246094 "/>
<path fill-rule="evenodd" fill="#0b0b0d" fill-opacity="1" d="M 448.808594 831.371094 L 448.808594 854.09375 L 445.929688 854.09375 L 445.929688 831.371094 L 448.808594 831.371094 "/>
<path fill-rule="evenodd" fill="#0b0b0d" fill-opacity="1" d="M 448.808594 995.839844 L 448.808594 1018.5625 L 445.929688 1018.5625 L 445.929688 995.839844 L 448.808594 995.839844 "/>
<path fill-rule="evenodd" fill="#3d0f08" fill-opacity="1" d="M 464.066406 264.941406 L 455.464844 260.28125 L 446.863281 264.941406 L 446.863281 303.980469 L 464.066406 303.980469 L 464.066406 264.941406 "/>
<path fill-rule="evenodd" fill="#3d0f08" fill-opacity="1" d="M 455.464844 198.75 C 458.589844 198.75 461.128906 201.289062 461.128906 204.410156 C 461.128906 207.539062 458.589844 210.070312 455.464844 210.070312 C 452.339844 210.070312 449.804688 207.539062 449.804688 204.410156 C 449.804688 201.289062 452.339844 198.75 455.464844 198.75 "/>
<path fill-rule="evenodd" fill="#3d0f08" fill-opacity="1" d="M 457.226562 203.121094 L 453.707031 203.121094 L 453.707031 460.339844 L 457.226562 460.339844 L 457.226562 203.121094 "/>
<path fill-rule="evenodd" fill="#3d0f08" fill-opacity="1" d="M 459.042969 484.378906 L 454.011719 484.378906 C 458.75 518.769531 457.820312 544.558594 454.011719 578.21875 L 459.042969 578.21875 C 459.042969 578.21875 462.3125 546.941406 462.3125 529.941406 C 462.3125 515.871094 459.042969 484.378906 459.042969 484.378906 "/>
<path fill-rule="evenodd" fill="#0b0b0d" fill-opacity="1" d="M 479.242188 485.960938 L 455.484375 485.960938 L 455.484375 571.359375 C 455.484375 571.359375 642.710938 587.320312 650.730469 571.359375 C 629.246094 571.359375 611.675781 569.449219 594.714844 562.398438 C 547.363281 542.71875 509.703125 513.5 479.242188 485.960938 "/>
<path fill-rule="evenodd" fill="#3d0f08" fill-opacity="1" d="M 460.679688 1030.558594 L 456.390625 1030.558594 C 460.429688 1054.695312 459.636719 1072.800781 456.390625 1096.421875 L 460.679688 1096.421875 C 460.679688 1096.421875 463.464844 1074.464844 463.464844 1062.539062 C 463.464844 1052.660156 460.679688 1030.558594 460.679688 1030.558594 "/>
<path fill-rule="evenodd" fill="#3d0f08" fill-opacity="1" d="M 461.511719 701.472656 L 457.222656 701.472656 C 461.261719 725.609375 460.472656 743.714844 457.222656 767.335938 L 461.511719 767.335938 C 461.511719 767.335938 464.296875 745.378906 464.296875 733.449219 C 464.296875 723.574219 461.511719 701.472656 461.511719 701.472656 "/>
<path fill-rule="evenodd" fill="#3d0f08" fill-opacity="1" d="M 461.511719 865.9375 L 457.222656 865.9375 C 461.261719 890.074219 460.472656 908.179688 457.222656 931.800781 L 461.511719 931.800781 C 461.511719 931.800781 464.296875 909.84375 464.296875 897.917969 C 464.296875 888.039062 461.511719 865.9375 461.511719 865.9375 "/>
<path fill-rule="evenodd" fill="#0b0b0d" fill-opacity="1" d="M 462.628906 1160.460938 L 462.628906 1183.183594 L 459.75 1183.183594 L 459.75 1160.460938 L 462.628906 1160.460938 "/>
<path fill-rule="evenodd" fill="#0b0b0d" fill-opacity="1" d="M 463.445312 668.246094 L 463.445312 690.96875 L 460.5625 690.96875 L 460.5625 668.246094 L 463.445312 668.246094 "/>
<path fill-rule="evenodd" fill="#0b0b0d" fill-opacity="1" d="M 463.460938 831.371094 L 463.460938 854.09375 L 460.582031 854.09375 L 460.582031 831.371094 L 463.460938 831.371094 "/>
<path fill-rule="evenodd" fill="#0b0b0d" fill-opacity="1" d="M 463.460938 995.839844 L 463.460938 1018.5625 L 460.582031 1018.5625 L 460.582031 995.839844 L 463.460938 995.839844 "/>
<path fill-rule="evenodd" fill="#0b0b0d" fill-opacity="1" d="M 464.050781 1097.75 L 474.476562 1097.578125 L 475.515625 1123.558594 L 465.089844 1123.730469 L 464.050781 1097.75 "/>
<path fill-rule="evenodd" fill="#0b0b0d" fill-opacity="1" d="M 464.882812 583.011719 L 475.308594 582.738281 L 476.347656 623.226562 L 465.921875 623.492188 L 464.882812 583.011719 "/>
<path fill-rule="evenodd" fill="#0b0b0d" fill-opacity="1" d="M 464.882812 768.660156 L 475.308594 768.488281 L 476.347656 794.472656 L 465.921875 794.644531 L 464.882812 768.660156 "/>
<path fill-rule="evenodd" fill="#0b0b0d" fill-opacity="1" d="M 464.882812 933.128906 L 475.308594 932.957031 L 476.347656 958.9375 L 465.921875 959.109375 L 464.882812 933.128906 "/>
<path fill-rule="evenodd" fill="#3d0f08" fill-opacity="1" d="M 477.796875 1189.117188 L 466.410156 1189.117188 L 466.410156 1199.867188 L 477.796875 1199.867188 L 477.796875 1189.117188 "/>
<path fill-rule="evenodd" fill="#3d0f08" fill-opacity="1" d="M 478.613281 696.902344 L 467.226562 696.902344 L 467.226562 707.652344 L 478.613281 707.652344 L 478.613281 696.902344 "/>
<path fill-rule="evenodd" fill="#3d0f08" fill-opacity="1" d="M 478.628906 860.03125 L 467.242188 860.03125 L 467.242188 870.777344 L 478.628906 870.777344 L 478.628906 860.03125 "/>
<path fill-rule="evenodd" fill="#3d0f08" fill-opacity="1" d="M 478.628906 1024.496094 L 467.242188 1024.496094 L 467.242188 1035.246094 L 478.628906 1035.246094 L 478.628906 1024.496094 "/>
<path fill-rule="evenodd" fill="#0b0b0d" fill-opacity="1" d="M 477.316406 1160.460938 L 477.316406 1183.183594 L 474.4375 1183.183594 L 474.4375 1160.460938 L 477.316406 1160.460938 "/>
<path fill-rule="evenodd" fill="#0b0b0d" fill-opacity="1" d="M 478.132812 668.246094 L 478.132812 690.96875 L 475.253906 690.96875 L 475.253906 668.246094 L 478.132812 668.246094 "/>
<path fill-rule="evenodd" fill="#0b0b0d" fill-opacity="1" d="M 478.148438 831.371094 L 478.148438 854.09375 L 475.269531 854.09375 L 475.269531 831.371094 L 478.148438 831.371094 "/>
<path fill-rule="evenodd" fill="#0b0b0d" fill-opacity="1" d="M 478.148438 995.839844 L 478.148438 1018.5625 L 475.269531 1018.5625 L 475.269531 995.839844 L 478.148438 995.839844 "/>
<path fill-rule="evenodd" fill="#0b0b0d" fill-opacity="1" d="M 481.214844 1098.617188 L 491.566406 1097.789062 L 496.5625 1123.582031 L 486.210938 1124.410156 L 481.214844 1098.617188 "/>
<path fill-rule="evenodd" fill="#0b0b0d" fill-opacity="1" d="M 482.046875 584.359375 L 492.398438 583.070312 L 497.394531 623.261719 L 487.042969 624.550781 L 482.046875 584.359375 "/>
<path fill-rule="evenodd" fill="#0b0b0d" fill-opacity="1" d="M 482.046875 769.53125 L 492.398438 768.703125 L 497.394531 794.496094 L 487.042969 795.320312 L 482.046875 769.53125 "/>
<path fill-rule="evenodd" fill="#0b0b0d" fill-opacity="1" d="M 482.046875 933.996094 L 492.398438 933.171875 L 497.394531 958.960938 L 487.042969 959.785156 L 482.046875 933.996094 "/>
<path fill-rule="evenodd" fill="#0b0b0d" fill-opacity="1" d="M 505.796875 1218.308594 L 483.472656 1218.308594 L 483.472656 1223.230469 L 505.796875 1223.230469 L 505.796875 1218.308594 "/>
<path fill-rule="evenodd" fill="#0b0b0d" fill-opacity="1" d="M 502.742188 1214.386719 L 486.523438 1214.386719 L 486.523438 1218.308594 L 502.742188 1218.308594 L 502.742188 1214.386719 "/>
<path fill-rule="evenodd" fill="#0b0b0d" fill-opacity="1" d="M 491.851562 1160.460938 L 491.851562 1183.183594 L 488.96875 1183.183594 L 488.96875 1160.460938 L 491.851562 1160.460938 "/>
<path fill-rule="evenodd" fill="#0b0b0d" fill-opacity="1" d="M 500.566406 1204.453125 L 489.039062 1204.453125 L 489.039062 1297.097656 L 500.566406 1297.097656 L 500.566406 1204.453125 "/>
<path fill-rule="evenodd" fill="#0b0b0d" fill-opacity="1" d="M 492.664062 668.246094 L 492.664062 690.96875 L 489.785156 690.96875 L 489.785156 668.246094 L 492.664062 668.246094 "/>
<path fill-rule="evenodd" fill="#0b0b0d" fill-opacity="1" d="M 492.683594 831.371094 L 492.683594 854.09375 L 489.804688 854.09375 L 489.804688 831.371094 L 492.683594 831.371094 "/>
<path fill-rule="evenodd" fill="#0b0b0d" fill-opacity="1" d="M 492.683594 995.839844 L 492.683594 1018.5625 L 489.804688 1018.5625 L 489.804688 995.839844 L 492.683594 995.839844 "/>
<path fill-rule="evenodd" fill="#0b0b0d" fill-opacity="1" d="M 552.796875 1176.730469 L 494.277344 1176.730469 L 494.277344 1189.582031 L 552.796875 1189.582031 L 552.796875 1176.730469 "/>
<path fill-rule="evenodd" fill="#0b0b0d" fill-opacity="1" d="M 552.976562 671.035156 L 494.453125 671.035156 L 494.453125 683.882812 L 552.976562 683.882812 L 552.976562 671.035156 "/>
<path fill-rule="evenodd" fill="#0b0b0d" fill-opacity="1" d="M 553.300781 1150.269531 L 494.777344 1150.269531 L 494.777344 1173.355469 L 553.300781 1173.355469 L 553.300781 1150.269531 "/>
<path fill-rule="evenodd" fill="#0b0b0d" fill-opacity="1" d="M 553.417969 1131.9375 L 494.898438 1131.9375 L 494.898438 1144.785156 L 553.417969 1144.785156 L 553.417969 1131.9375 "/>
<path fill-rule="evenodd" fill="#0b0b0d" fill-opacity="1" d="M 553.480469 644.570312 L 494.957031 644.570312 L 494.957031 667.65625 L 553.480469 667.65625 L 553.480469 644.570312 "/>
<path fill-rule="evenodd" fill="#0b0b0d" fill-opacity="1" d="M 553.597656 626.238281 L 495.074219 626.238281 L 495.074219 639.089844 L 553.597656 639.089844 L 553.597656 626.238281 "/>
<path fill-rule="evenodd" fill="#0b0b0d" fill-opacity="1" d="M 553.632812 847.644531 L 495.109375 847.644531 L 495.109375 860.492188 L 553.632812 860.492188 L 553.632812 847.644531 "/>
<path fill-rule="evenodd" fill="#0b0b0d" fill-opacity="1" d="M 553.632812 1012.109375 L 495.109375 1012.109375 L 495.109375 1024.960938 L 553.632812 1024.960938 L 553.632812 1012.109375 "/>
<path fill-rule="evenodd" fill="#0b0b0d" fill-opacity="1" d="M 554.132812 821.179688 L 495.613281 821.179688 L 495.613281 844.265625 L 554.132812 844.265625 L 554.132812 821.179688 "/>
<path fill-rule="evenodd" fill="#0b0b0d" fill-opacity="1" d="M 554.132812 985.644531 L 495.613281 985.644531 L 495.613281 1008.734375 L 554.132812 1008.734375 L 554.132812 985.644531 "/>
<path fill-rule="evenodd" fill="#0b0b0d" fill-opacity="1" d="M 554.253906 802.851562 L 495.730469 802.851562 L 495.730469 815.699219 L 554.253906 815.699219 L 554.253906 802.851562 "/>
<path fill-rule="evenodd" fill="#0b0b0d" fill-opacity="1" d="M 554.253906 967.316406 L 495.730469 967.316406 L 495.730469 980.164062 L 554.253906 980.164062 L 554.253906 967.316406 "/>
<path fill-rule="evenodd" fill="#3d0f08" fill-opacity="1" d="M 551.160156 1177.589844 L 495.914062 1177.589844 L 495.914062 1188.722656 L 551.160156 1188.722656 L 551.160156 1177.589844 "/>
<path fill-rule="evenodd" fill="#3d0f08" fill-opacity="1" d="M 551.339844 671.890625 L 496.09375 671.890625 L 496.09375 683.027344 L 551.339844 683.027344 L 551.339844 671.890625 "/>
<path fill-rule="evenodd" fill="#3d0f08" fill-opacity="1" d="M 551.664062 1151.808594 L 496.414062 1151.808594 L 496.414062 1171.8125 L 551.664062 1171.8125 L 551.664062 1151.808594 "/>
<path fill-rule="evenodd" fill="#3d0f08" fill-opacity="1" d="M 551.78125 1132.792969 L 496.535156 1132.792969 L 496.535156 1143.929688 L 551.78125 1143.929688 L 551.78125 1132.792969 "/>
<path fill-rule="evenodd" fill="#3d0f08" fill-opacity="1" d="M 551.84375 646.109375 L 496.59375 646.109375 L 496.59375 666.117188 L 551.84375 666.117188 L 551.84375 646.109375 "/>
<path fill-rule="evenodd" fill="#3d0f08" fill-opacity="1" d="M 551.960938 627.097656 L 496.714844 627.097656 L 496.714844 638.230469 L 551.960938 638.230469 L 551.960938 627.097656 "/>
<path fill-rule="evenodd" fill="#3d0f08" fill-opacity="1" d="M 551.992188 848.503906 L 496.746094 848.503906 L 496.746094 859.636719 L 551.992188 859.636719 L 551.992188 848.503906 "/>
<path fill-rule="evenodd" fill="#3d0f08" fill-opacity="1" d="M 551.992188 1012.96875 L 496.746094 1012.96875 L 496.746094 1024.101562 L 551.992188 1024.101562 L 551.992188 1012.96875 "/>
<path fill-rule="evenodd" fill="#3d0f08" fill-opacity="1" d="M 552.496094 822.71875 L 497.25 822.71875 L 497.25 842.726562 L 552.496094 842.726562 L 552.496094 822.71875 "/>
<path fill-rule="evenodd" fill="#3d0f08" fill-opacity="1" d="M 552.496094 987.1875 L 497.25 987.1875 L 497.25 1007.191406 L 552.496094 1007.191406 L 552.496094 987.1875 "/>
<path fill-rule="evenodd" fill="#3d0f08" fill-opacity="1" d="M 552.613281 803.707031 L 497.367188 803.707031 L 497.367188 814.84375 L 552.613281 814.84375 L 552.613281 803.707031 "/>
<path fill-rule="evenodd" fill="#3d0f08" fill-opacity="1" d="M 552.613281 968.171875 L 497.367188 968.171875 L 497.367188 979.308594 L 552.613281 979.308594 L 552.613281 968.171875 "/>
<path fill-rule="evenodd" fill="#0b0b0d" fill-opacity="1" d="M 498.425781 1098.402344 L 508.601562 1096.929688 L 517.507812 1122.285156 L 507.332031 1123.757812 L 498.425781 1098.402344 "/>
<path fill-rule="evenodd" fill="#0b0b0d" fill-opacity="1" d="M 499.257812 584.019531 L 509.433594 581.730469 L 518.339844 621.238281 L 508.164062 623.535156 L 499.257812 584.019531 "/>
<path fill-rule="evenodd" fill="#0b0b0d" fill-opacity="1" d="M 499.257812 769.316406 L 509.433594 767.84375 L 518.339844 793.199219 L 508.164062 794.671875 L 499.257812 769.316406 "/>
<path fill-rule="evenodd" fill="#0b0b0d" fill-opacity="1" d="M 499.257812 933.78125 L 509.433594 932.308594 L 518.339844 957.664062 L 508.164062 959.136719 L 499.257812 933.78125 "/>
<path fill-rule="evenodd" fill="#3d0f08" fill-opacity="1" d="M 511.777344 1189.117188 L 500.390625 1189.117188 L 500.390625 1199.867188 L 511.777344 1199.867188 L 511.777344 1189.117188 "/>
<path fill-rule="evenodd" fill="#3d0f08" fill-opacity="1" d="M 512.589844 696.902344 L 501.203125 696.902344 L 501.203125 707.652344 L 512.589844 707.652344 L 512.589844 696.902344 "/>
<path fill-rule="evenodd" fill="#3d0f08" fill-opacity="1" d="M 512.609375 860.03125 L 501.222656 860.03125 L 501.222656 870.777344 L 512.609375 870.777344 L 512.609375 860.03125 "/>
<path fill-rule="evenodd" fill="#3d0f08" fill-opacity="1" d="M 512.609375 1024.496094 L 501.222656 1024.496094 L 501.222656 1035.246094 L 512.609375 1035.246094 L 512.609375 1024.496094 "/>
<path fill-rule="evenodd" fill="#0b0b0d" fill-opacity="1" d="M 506.492188 1160.460938 L 506.492188 1183.183594 L 503.613281 1183.183594 L 503.613281 1160.460938 L 506.492188 1160.460938 "/>
<path fill-rule="evenodd" fill="#0b0b0d" fill-opacity="1" d="M 507.308594 668.246094 L 507.308594 690.96875 L 504.429688 690.96875 L 504.429688 668.246094 L 507.308594 668.246094 "/>
<path fill-rule="evenodd" fill="#0b0b0d" fill-opacity="1" d="M 507.328125 831.371094 L 507.328125 854.09375 L 504.445312 854.09375 L 504.445312 831.371094 L 507.328125 831.371094 "/>
<path fill-rule="evenodd" fill="#0b0b0d" fill-opacity="1" d="M 507.328125 995.839844 L 507.328125 1018.5625 L 504.445312 1018.5625 L 504.445312 995.839844 L 507.328125 995.839844 "/>
<path fill-rule="evenodd" fill="#0b0b0d" fill-opacity="1" d="M 513.492188 1099.757812 L 523.429688 1097.71875 L 535.761719 1122.472656 L 525.828125 1124.511719 L 513.492188 1099.757812 "/>
<path fill-rule="evenodd" fill="#0b0b0d" fill-opacity="1" d="M 514.324219 586.128906 L 524.261719 582.960938 L 536.59375 621.535156 L 526.660156 624.710938 L 514.324219 586.128906 "/>
<path fill-rule="evenodd" fill="#0b0b0d" fill-opacity="1" d="M 514.324219 770.671875 L 524.261719 768.632812 L 536.59375 793.386719 L 526.660156 795.425781 L 514.324219 770.671875 "/>
<path fill-rule="evenodd" fill="#0b0b0d" fill-opacity="1" d="M 514.324219 935.136719 L 524.261719 933.097656 L 536.59375 957.851562 L 526.660156 959.890625 L 514.324219 935.136719 "/>
<path fill-rule="evenodd" fill="#0b0b0d" fill-opacity="1" d="M 521.34375 1160.460938 L 521.34375 1183.183594 L 518.464844 1183.183594 L 518.464844 1160.460938 L 521.34375 1160.460938 "/>
<path fill-rule="evenodd" fill="#0b0b0d" fill-opacity="1" d="M 522.15625 668.246094 L 522.15625 690.96875 L 519.277344 690.96875 L 519.277344 668.246094 L 522.15625 668.246094 "/>
<path fill-rule="evenodd" fill="#0b0b0d" fill-opacity="1" d="M 522.175781 831.371094 L 522.175781 854.09375 L 519.296875 854.09375 L 519.296875 831.371094 L 522.175781 831.371094 "/>
<path fill-rule="evenodd" fill="#0b0b0d" fill-opacity="1" d="M 522.175781 995.839844 L 522.175781 1018.5625 L 519.296875 1018.5625 L 519.296875 995.839844 L 522.175781 995.839844 "/>
<path fill-rule="evenodd" fill="#0b0b0d" fill-opacity="1" d="M 528.570312 1101.527344 L 538.191406 1098.9375 L 553.859375 1122.902344 L 544.238281 1125.492188 L 528.570312 1101.527344 "/>
<path fill-rule="evenodd" fill="#0b0b0d" fill-opacity="1" d="M 529.402344 588.890625 L 539.023438 584.859375 L 554.691406 622.203125 L 545.070312 626.238281 L 529.402344 588.890625 "/>
<path fill-rule="evenodd" fill="#0b0b0d" fill-opacity="1" d="M 529.402344 772.4375 L 539.023438 769.851562 L 554.691406 793.816406 L 545.070312 796.40625 L 529.402344 772.4375 "/>
<path fill-rule="evenodd" fill="#0b0b0d" fill-opacity="1" d="M 529.402344 936.90625 L 539.023438 934.316406 L 554.691406 958.28125 L 545.070312 960.871094 L 529.402344 936.90625 "/>
<path fill-rule="evenodd" fill="#0b0b0d" fill-opacity="1" d="M 535.988281 1160.460938 L 535.988281 1183.183594 L 533.109375 1183.183594 L 533.109375 1160.460938 L 535.988281 1160.460938 "/>
<path fill-rule="evenodd" fill="#0b0b0d" fill-opacity="1" d="M 536.804688 668.246094 L 536.804688 690.96875 L 533.921875 690.96875 L 533.921875 668.246094 L 536.804688 668.246094 "/>
<path fill-rule="evenodd" fill="#0b0b0d" fill-opacity="1" d="M 536.820312 831.371094 L 536.820312 854.09375 L 533.941406 854.09375 L 533.941406 831.371094 L 536.820312 831.371094 "/>
<path fill-rule="evenodd" fill="#0b0b0d" fill-opacity="1" d="M 536.820312 995.839844 L 536.820312 1018.5625 L 533.941406 1018.5625 L 533.941406 995.839844 L 536.820312 995.839844 "/>
<path fill-rule="evenodd" fill="#3d0f08" fill-opacity="1" d="M 545.753906 1189.117188 L 534.367188 1189.117188 L 534.367188 1199.867188 L 545.753906 1199.867188 L 545.753906 1189.117188 "/>
<path fill-rule="evenodd" fill="#3d0f08" fill-opacity="1" d="M 546.570312 696.902344 L 535.183594 696.902344 L 535.183594 707.652344 L 546.570312 707.652344 L 546.570312 696.902344 "/>
<path fill-rule="evenodd" fill="#3d0f08" fill-opacity="1" d="M 546.585938 860.03125 L 535.199219 860.03125 L 535.199219 870.777344 L 546.585938 870.777344 L 546.585938 860.03125 "/>
<path fill-rule="evenodd" fill="#3d0f08" fill-opacity="1" d="M 546.585938 1024.496094 L 535.199219 1024.496094 L 535.199219 1035.246094 L 546.585938 1035.246094 L 546.585938 1024.496094 "/>
<path fill-rule="evenodd" fill="#0b0b0d" fill-opacity="1" d="M 544.222656 1101.519531 L 553.449219 1098.398438 L 572.332031 1121.390625 L 563.101562 1124.511719 L 544.222656 1101.519531 "/>
<path fill-rule="evenodd" fill="#0b0b0d" fill-opacity="1" d="M 545.054688 588.878906 L 554.28125 584.019531 L 573.164062 619.847656 L 563.933594 624.710938 L 545.054688 588.878906 "/>
<path fill-rule="evenodd" fill="#0b0b0d" fill-opacity="1" d="M 545.054688 772.433594 L 554.28125 769.3125 L 573.164062 792.304688 L 563.933594 795.425781 L 545.054688 772.433594 "/>
<path fill-rule="evenodd" fill="#0b0b0d" fill-opacity="1" d="M 545.054688 936.898438 L 554.28125 933.777344 L 573.164062 956.769531 L 563.933594 959.890625 L 545.054688 936.898438 "/>
<path fill-rule="evenodd" fill="#0b0b0d" fill-opacity="1" d="M 550.628906 1160.460938 L 550.628906 1183.183594 L 547.746094 1183.183594 C 547.746094 1183.183594 547.746094 1160.460938 547.746094 1160.460938 L 550.628906 1160.460938 "/>
<path fill-rule="evenodd" fill="#0b0b0d" fill-opacity="1" d="M 551.441406 668.246094 L 551.441406 690.96875 L 548.5625 690.96875 L 548.5625 668.246094 L 551.441406 668.246094 "/>
<path fill-rule="evenodd" fill="#0b0b0d" fill-opacity="1" d="M 551.460938 831.371094 L 551.460938 854.09375 L 548.578125 854.09375 L 548.578125 831.371094 L 551.460938 831.371094 "/>
<path fill-rule="evenodd" fill="#0b0b0d" fill-opacity="1" d="M 551.460938 995.839844 L 551.460938 1018.5625 L 548.578125 1018.5625 L 548.578125 995.839844 L 551.460938 995.839844 "/>
<path fill-rule="evenodd" fill="#0b0b0d" fill-opacity="1" d="M 561.554688 1103.648438 L 570.320312 1100.023438 L 592.269531 1121.863281 L 583.503906 1125.492188 L 561.554688 1103.648438 "/>
<path fill-rule="evenodd" fill="#0b0b0d" fill-opacity="1" d="M 562.386719 592.199219 L 571.152344 586.550781 L 593.101562 620.585938 L 584.335938 626.238281 L 562.386719 592.199219 "/>
<path fill-rule="evenodd" fill="#0b0b0d" fill-opacity="1" d="M 562.386719 774.5625 L 571.152344 770.9375 L 593.101562 792.777344 L 584.335938 796.40625 L 562.386719 774.5625 "/>
<path fill-rule="evenodd" fill="#0b0b0d" fill-opacity="1" d="M 562.386719 939.027344 L 571.152344 935.402344 L 593.101562 957.242188 L 584.335938 960.871094 L 562.386719 939.027344 "/>
<path fill-rule="evenodd" fill="#0b0b0d" fill-opacity="1" d="M 565.285156 1160.460938 L 565.285156 1183.183594 L 562.402344 1183.183594 L 562.402344 1160.460938 L 565.285156 1160.460938 "/>
<path fill-rule="evenodd" fill="#0b0b0d" fill-opacity="1" d="M 566.097656 668.246094 L 566.097656 690.96875 L 563.21875 690.96875 L 563.21875 668.246094 L 566.097656 668.246094 "/>
<path fill-rule="evenodd" fill="#0b0b0d" fill-opacity="1" d="M 566.117188 831.371094 L 566.117188 854.09375 L 563.234375 854.09375 L 563.234375 831.371094 L 566.117188 831.371094 "/>
<path fill-rule="evenodd" fill="#0b0b0d" fill-opacity="1" d="M 566.117188 995.839844 L 566.117188 1018.5625 L 563.234375 1018.5625 L 563.234375 995.839844 L 566.117188 995.839844 "/>
<path fill-rule="evenodd" fill="#3d0f08" fill-opacity="1" d="M 579.730469 1189.117188 L 568.34375 1189.117188 L 568.34375 1199.867188 L 579.730469 1199.867188 L 579.730469 1189.117188 "/>
<path fill-rule="evenodd" fill="#3d0f08" fill-opacity="1" d="M 580.546875 696.902344 L 569.160156 696.902344 L 569.160156 707.652344 L 580.546875 707.652344 L 580.546875 696.902344 "/>
<path fill-rule="evenodd" fill="#3d0f08" fill-opacity="1" d="M 580.5625 860.03125 L 569.179688 860.03125 L 569.179688 870.777344 L 580.5625 870.777344 L 580.5625 860.03125 "/>
<path fill-rule="evenodd" fill="#3d0f08" fill-opacity="1" d="M 580.5625 1024.496094 L 569.179688 1024.496094 L 569.179688 1035.246094 L 580.5625 1035.246094 L 580.5625 1024.496094 "/>
<path fill-rule="evenodd" fill="#0b0b0d" fill-opacity="1" d="M 580.058594 1160.460938 L 580.058594 1183.183594 L 577.175781 1183.183594 L 577.175781 1160.460938 L 580.058594 1160.460938 "/>
<path fill-rule="evenodd" fill="#0b0b0d" fill-opacity="1" d="M 580.871094 668.246094 L 580.871094 690.96875 L 577.992188 690.96875 L 577.992188 668.246094 L 580.871094 668.246094 "/>
<path fill-rule="evenodd" fill="#0b0b0d" fill-opacity="1" d="M 580.890625 831.371094 L 580.890625 854.09375 L 578.007812 854.09375 L 578.007812 831.371094 L 580.890625 831.371094 "/>
<path fill-rule="evenodd" fill="#0b0b0d" fill-opacity="1" d="M 580.890625 995.839844 L 580.890625 1018.5625 L 578.007812 1018.5625 L 578.007812 995.839844 L 580.890625 995.839844 "/>
<path fill-rule="evenodd" fill="#0b0b0d" fill-opacity="1" d="M 579.113281 1104.796875 L 587.351562 1100.691406 L 612.195312 1121.214844 L 603.960938 1125.320312 L 579.113281 1104.796875 "/>
<path fill-rule="evenodd" fill="#0b0b0d" fill-opacity="1" d="M 579.945312 593.988281 L 588.183594 587.589844 L 613.03125 619.570312 L 604.792969 625.972656 L 579.945312 593.988281 "/>
<path fill-rule="evenodd" fill="#0b0b0d" fill-opacity="1" d="M 579.945312 775.710938 L 588.183594 771.605469 L 613.03125 792.128906 L 604.792969 796.234375 L 579.945312 775.710938 "/>
<path fill-rule="evenodd" fill="#0b0b0d" fill-opacity="1" d="M 579.945312 940.175781 L 588.183594 936.070312 L 613.03125 956.59375 L 604.792969 960.699219 L 579.945312 940.175781 "/>
<path fill-rule="evenodd" fill="#0b0b0d" fill-opacity="1" d="M 596.757812 1104.953125 L 604.402344 1100.398438 L 631.960938 1119.445312 L 624.3125 1124 L 596.757812 1104.953125 "/>
<path fill-rule="evenodd" fill="#0b0b0d" fill-opacity="1" d="M 597.59375 594.230469 L 605.234375 587.128906 L 632.789062 616.816406 L 625.148438 623.914062 L 597.59375 594.230469 "/>
<path fill-rule="evenodd" fill="#0b0b0d" fill-opacity="1" d="M 597.59375 775.867188 L 605.234375 771.3125 L 632.789062 790.359375 L 625.148438 794.914062 L 597.59375 775.867188 "/>
<path fill-rule="evenodd" fill="#0b0b0d" fill-opacity="1" d="M 597.59375 940.332031 L 605.234375 935.777344 L 632.789062 954.824219 L 625.148438 959.378906 L 597.59375 940.332031 "/>
<path fill-rule="evenodd" fill="#0b0b0d" fill-opacity="1" d="M 614.359375 1104.117188 L 621.351562 1099.148438 L 651.402344 1116.574219 L 644.410156 1121.539062 L 614.359375 1104.117188 "/>
<path fill-rule="evenodd" fill="#0b0b0d" fill-opacity="1" d="M 615.191406 592.929688 L 622.183594 585.191406 L 652.234375 612.339844 L 645.242188 620.078125 L 615.191406 592.929688 "/>
<path fill-rule="evenodd" fill="#0b0b0d" fill-opacity="1" d="M 615.191406 775.027344 L 622.183594 770.0625 L 652.234375 787.484375 L 645.242188 792.453125 L 615.191406 775.027344 "/>
<path fill-rule="evenodd" fill="#0b0b0d" fill-opacity="1" d="M 615.191406 939.492188 L 622.183594 934.527344 L 652.234375 951.953125 L 645.242188 956.917969 L 615.191406 939.492188 "/>
<path fill-rule="evenodd" fill="#0b0b0d" fill-opacity="1" d="M 657.53125 1217.328125 L 635.203125 1217.328125 L 635.203125 1222.253906 L 657.53125 1222.253906 L 657.53125 1217.328125 "/>
<path fill-rule="evenodd" fill="#0b0b0d" fill-opacity="1" d="M 654.476562 1213.40625 L 638.257812 1213.40625 L 638.257812 1217.328125 L 654.476562 1217.328125 L 654.476562 1213.40625 "/>
<path fill-rule="evenodd" fill="#0b0b0d" fill-opacity="1" d="M 652.300781 1203.472656 L 640.773438 1203.472656 L 640.773438 1296.117188 L 652.300781 1296.117188 L 652.300781 1203.472656 "/>
<path fill-rule="evenodd" fill="#0b0b0d" fill-opacity="1" d="M 823.691406 1220.496094 L 840.449219 1220.496094 L 840.449219 1225.421875 L 823.691406 1225.421875 L 823.691406 1220.496094 "/>
<path fill-rule="evenodd" fill="#0b0b0d" fill-opacity="1" d="M 826.628906 1216.574219 L 840.449219 1216.574219 L 840.449219 1220.496094 L 826.628906 1220.496094 L 826.628906 1216.574219 "/>
<path fill-rule="evenodd" fill="#0b0b0d" fill-opacity="1" d="M 828.925781 1206.640625 L 840.449219 1206.640625 L 840.449219 1299.285156 L 828.925781 1299.285156 L 828.925781 1206.640625 "/>
</svg>
