<svg xmlns="http://www.w3.org/2000/svg" viewBox="4150.10 1118.33 1537.41 729.22" width="1537" height="729"><path fill="#0b0b0d" fill-rule="nonzero" d="M 4653.605469 1339.921875 C 4710.597656 1304.4375 4772.3125 1289.367188 4841 1304.347656 C 4857.96875 1308.046875 4875.425781 1308.976562 4892.722656 1307.417969 C 4952.160156 1302.078125 5008.292969 1291.546875 5060.050781 1274.167969 C 5065.378906 1272.378906 5070.507812 1270.03125 5075.488281 1267.398438 C 5102.796875 1252.941406 5139.113281 1250.941406 5180.980469 1256.570312 C 5193.339844 1258.242188 5205.898438 1256.320312 5217.136719 1250.910156 C 5243.164062 1238.390625 5279.929688 1225.894531 5324.816406 1213.425781 C 5283.5 1208.113281 5243.042969 1207.476562 5203.808594 1213.425781 C 5245.125 1162.886719 5306.269531 1148.769531 5379.683594 1157.199219 C 5383.703125 1157.660156 5387.640625 1155.988281 5390.160156 1152.820312 C 5418.660156 1117.113281 5509.390625 1156.910156 5525.558594 1193.714844 L 5610.664062 1197.234375 C 5625.460938 1197.84375 5634.832031 1213.253906 5628.691406 1226.734375 C 5612.992188 1261.230469 5590.425781 1282.097656 5564.648438 1296.597656 C 5556.9375 1328.734375 5503.5625 1325.464844 5437.96875 1312.714844 C 5425.5 1310.285156 5412.570312 1312.046875 5401.261719 1317.816406 C 5360.125 1338.765625 5328.648438 1368.472656 5299.328125 1400.128906 C 5290.648438 1409.496094 5286.992188 1422.585938 5289.960938 1435.003906 C 5292.21875 1444.476562 5296.589844 1451.554688 5303.238281 1456.0625 C 5353.925781 1445.996094 5415.550781 1443.765625 5483.894531 1446.355469 C 5489.34375 1446.554688 5494.691406 1447.875 5499.5625 1450.304688 C 5541.859375 1471.390625 5584.296875 1502.089844 5626.800781 1537.527344 C 5630.910156 1540.945312 5630.332031 1547.425781 5625.671875 1550.066406 C 5611.382812 1558.15625 5588.144531 1561.144531 5561.476562 1562.175781 C 5557.507812 1562.324219 5553.617188 1560.933594 5550.617188 1558.304688 L 5490.332031 1505.417969 C 5486.285156 1501.871094 5480.914062 1500.210938 5475.5625 1500.859375 L 5395.0625 1510.597656 C 5392.519531 1510.910156 5392 1514.367188 5394.339844 1515.398438 C 5516.652344 1569.523438 5472.234375 1618.621094 5413.988281 1667.285156 C 5411.871094 1669.054688 5409.390625 1670.335938 5406.730469 1671.035156 C 5373.664062 1679.695312 5349.554688 1680.054688 5332.246094 1674.105469 C 5324.789062 1671.546875 5323.757812 1661.425781 5330.617188 1657.527344 C 5384.03125 1627.160156 5428.660156 1597.820312 5385.78125 1578.632812 L 5289.171875 1553.933594 C 5247.152344 1554.515625 5219.945312 1548.707031 5208.496094 1536.117188 C 5175.289062 1544.667969 5156.332031 1531.457031 5144.703125 1507.03125 C 5058.300781 1548.765625 4959.769531 1533.648438 4855.566406 1491.929688 C 4850.359375 1489.839844 4845.4375 1495.558594 4848.316406 1500.378906 C 4877.226562 1548.976562 4844.628906 1627.578125 4803.902344 1670.804688 C 4797.640625 1677.445312 4796.851562 1687.535156 4801.972656 1695.082031 C 4818.660156 1719.679688 4854.847656 1766.878906 4854.847656 1766.878906 C 4904.292969 1758.078125 4928.5625 1782.117188 4947.710938 1812.84375 L 4817.320312 1812.84375 C 4792.3125 1779.207031 4761.214844 1747.089844 4724.808594 1716.300781 C 4715.300781 1708.273438 4712.660156 1694.722656 4718.480469 1683.722656 C 4748.6875 1626.539062 4736.347656 1583.121094 4691.621094 1550.1875 C 4642.855469 1584.011719 4596.097656 1609.851562 4552.011719 1625.121094 C 4528.335938 1633.308594 4507.347656 1647.816406 4491.597656 1667.304688 L 4456.242188 1711.050781 C 4449.113281 1719.859375 4446.992188 1731.742188 4450.722656 1742.449219 C 4458.03125 1763.398438 4459.03125 1782.605469 4454.25 1800.222656 C 4451.070312 1811.902344 4437.421875 1817.023438 4427.195312 1810.542969 C 4405.445312 1796.773438 4393.136719 1767.457031 4385.136719 1731.039062 C 4383.058594 1721.5625 4385.316406 1711.660156 4391.238281 1703.972656 C 4418.042969 1669.117188 4441.351562 1630.820312 4460.601562 1588.492188 C 4463.421875 1582.273438 4469.109375 1577.84375 4475.847656 1576.695312 C 4518.015625 1569.464844 4552.753906 1539.4375 4582.820312 1495.082031 C 4587.429688 1488.269531 4588.96875 1479.832031 4587 1471.851562 C 4581.699219 1450.472656 4580.820312 1429.304688 4587.808594 1408.539062 C 4545.644531 1402.476562 4500.558594 1411.847656 4452.140625 1438.933594 C 4444.433594 1443.246094 4437.144531 1448.273438 4430.222656 1453.785156 C 4316.222656 1544.644531 4260.628906 1521.566406 4208.082031 1492.570312 C 4206.203125 1491.539062 4207.0625 1488.679688 4209.191406 1488.851562 C 4274.707031 1493.859375 4336.972656 1492.410156 4376.296875 1445.414062 C 4384.96875 1435.054688 4394.707031 1425.617188 4405.386719 1417.328125 C 4486.546875 1354.324219 4532.214844 1349.191406 4570.511719 1356.0625 C 4599.257812 1361.210938 4628.804688 1355.363281 4653.605469 1339.921875 "/></svg>